<svg xmlns="http://www.w3.org/2000/svg" width="28" height="28" viewBox="0 0 28 28"><defs><style>.a{fill:rgba(119,126,144,0);}.b{fill:#777e90;}</style></defs><g transform="translate(-663.356 -233.356)"><rect class="a" width="28" height="28" transform="translate(663.356 233.356)"/><g transform="translate(669.375 238.923)"><path class="b" d="M2.413,15.963a.558.558,0,0,1-.558-.557V3.341H.557a.557.557,0,0,1,0-1.114H4.682L5.744.289A.557.557,0,0,1,6.232,0H9.754a.556.556,0,0,1,.491.293l1.039,1.933h4.122a.557.557,0,1,1,0,1.114h-1.3V15.406a.557.557,0,0,1-.557.557Zm.556-1.114H12.993V3.341H2.969ZM10.021,2.227l-.6-1.113H6.562l-.61,1.113Zm-1.111,9.1V6.5a.557.557,0,1,1,1.114,0v4.826a.557.557,0,0,1-1.114,0Zm-2.97,0V6.5a.557.557,0,1,1,1.114,0v4.826a.557.557,0,0,1-1.114,0Z"/></g></g></svg>