<svg xmlns="http://www.w3.org/2000/svg" width="32" height="32" viewBox="0 0 32 32"><defs><style>.a{fill:rgba(215,219,236,0);stroke:rgba(1,69,255,0);stroke-miterlimit:10;}.b{fill:#82808a;}.c{stroke:none;}.d{fill:none;}</style></defs><g transform="translate(-666.668 -236.668)"><g class="a" transform="translate(666.668 236.668)"><rect class="c" width="32" height="32"/><rect class="d" x="0.5" y="0.5" width="31" height="31"/></g><g transform="translate(673.524 243.524)"><path class="b" d="M5.677,21.538c-1.451,0-1.852-.234-2.069-.487-.2-.229-.333-.583-.356-1.565a15.528,15.528,0,0,1,.12-2.165c.179-1.456.6-3.407,1.595-4.427,1.147-1.177,3.325-3.345,5.63-5.64l2.312-2.3a5.335,5.335,0,0,1,3.783-1.7,4.926,4.926,0,0,1,4.483,3.042,5.043,5.043,0,0,1-1.34,5.587l-2.014,2.007c-2.425,2.416-4.716,4.7-5.915,5.922C10.57,21.174,7.362,21.538,5.677,21.538Zm-.831-1.61a6.8,6.8,0,0,0,.831.042c1.906,0,4.338-.471,5.11-1.259,1.205-1.23,3.5-3.516,5.928-5.936l2.013-2.006a3.483,3.483,0,0,0,1-3.878,3.343,3.343,0,0,0-3.035-2.075A3.809,3.809,0,0,0,14.018,6.06L11.7,8.365c-2.3,2.291-4.475,4.455-5.613,5.623a6.536,6.536,0,0,0-1.129,3.275A12.6,12.6,0,0,0,4.846,19.928Z" transform="translate(-3.25 -3.25)"/><path class="b" d="M17.107,11.872a.763.763,0,0,1-.541-.224L11.974,7.056a.765.765,0,1,1,1.082-1.082l4.592,4.592a.765.765,0,0,1-.541,1.306Z" transform="translate(-2.758 -3.199)"/><path class="b" d="M19.117,20.781h-5.1a.765.765,0,0,1,0-1.531h5.1a.765.765,0,0,1,0,1.531Z" transform="translate(-2.615 -2.493)"/></g></g></svg>