<svg xmlns="http://www.w3.org/2000/svg" width="24" height="24" viewBox="0 0 24 24"><defs><style>.a{fill:none;}.b{fill:#7e84a3;}</style></defs><rect class="a" width="24" height="24"/><path class="b" d="M33.939,9.8h-.005l-.051-.048V8.317H27.019V7.257h6.865V5.782l2.031,1.934v.006ZM30.3,1.016H21.867l3.236,1.6a1.459,1.459,0,0,1,.779,1.166l.051,9.508a.509.509,0,0,1,.115-.013h4.268V9.931h1.016v3.857a.508.508,0,0,1-.508.508H26.048a.509.509,0,0,1-.11-.012l.015,2.755c0,.145-.117.2-.261.123L20,14a1.243,1.243,0,0,1-.632-.979L19.389.647a.508.508,0,0,1,.006-.3A.338.338,0,0,1,19.7.031.507.507,0,0,1,19.877,0H30.811a.508.508,0,0,1,.5.611.51.51,0,0,1,.01.1V5.579H30.3Z" transform="translate(-14.642 4.402)"/></svg>