<svg xmlns="http://www.w3.org/2000/svg" width="28" height="28" viewBox="0 0 28 28"><defs><style>.a{fill:rgba(119,126,144,0);}.b{fill:#777e90;}</style></defs><g transform="translate(-927 -298)"><g transform="translate(263.644 64.644)"><rect class="a" width="28" height="28" transform="translate(663.356 233.356)"/></g><path class="b" d="M149.3,92.295a5.295,5.295,0,1,0-8.39,4.3l-.019.009a8.023,8.023,0,0,0-4.891,7.22.171.171,0,0,0,.171.175h1.279a.172.172,0,0,0,.171-.167A6.4,6.4,0,0,1,144,97.589,5.294,5.294,0,0,0,149.3,92.295ZM144,95.967a3.672,3.672,0,1,1,3.672-3.672A3.672,3.672,0,0,1,144,95.967Zm2.242,4.718h5.636a.171.171,0,0,0,.171-.171v-1.2a.171.171,0,0,0-.171-.171h-3.768l1.008-1.283a.17.17,0,0,0-.134-.275h-1.55a.349.349,0,0,0-.269.13l-1.462,1.86a.684.684,0,0,0,.54,1.106Zm5.124,1.366h-5.636a.171.171,0,0,0-.171.171v1.2a.171.171,0,0,0,.171.171H149.5l-1.008,1.283a.17.17,0,0,0,.135.275h1.55a.349.349,0,0,0,.269-.13l1.462-1.86a.684.684,0,0,0-.54-1.106Z" transform="translate(797.237 216.005)"/></g></svg>