<svg xmlns="http://www.w3.org/2000/svg" width="36" height="36.005" viewBox="0 0 36 36.005"><defs><style>.a{fill:#fff;}</style></defs><g transform="translate(-3.618 -0.067)"><path class="a" d="M27.864,34.64V27.214l-3.154,2.95a1.356,1.356,0,1,1-1.855-1.979l4.758-4.466a2.064,2.064,0,0,1,3.192,0l4.762,4.466a1.355,1.355,0,0,1,.061,1.925,1.273,1.273,0,0,1-.965.42,1.39,1.39,0,0,1-.942-.365L30.591,27.22v7.42a1.364,1.364,0,1,1-2.727,0Zm-23.782.627A4.077,4.077,0,0,1,0,31.2V4.074A4.086,4.086,0,0,1,4.081,0h27.2a4.083,4.083,0,0,1,4.079,4.074v5.3a1.363,1.363,0,0,1,0,.25V23.062a1.365,1.365,0,0,1-2.729,0V12.793L22.74,22.645a4.068,4.068,0,0,1-4.7.751l-7.378-3.669A1.338,1.338,0,0,0,9.1,19.98L2.712,26.337v4.853a1.371,1.371,0,0,0,1.369,1.358H23.122a1.359,1.359,0,0,1,0,2.719ZM2.712,4.074v18.44l4.47-4.453a4.074,4.074,0,0,1,4.706-.766l7.372,3.684a1.345,1.345,0,0,0,1.562-.252L32.632,8.96V4.074a1.361,1.361,0,0,0-1.356-1.357H4.081A1.37,1.37,0,0,0,2.712,4.074ZM8.16,9.5a4.08,4.08,0,1,1,4.081,4.068A4.073,4.073,0,0,1,8.16,9.5Zm2.717,0a1.36,1.36,0,1,0,1.365-1.352A1.363,1.363,0,0,0,10.877,9.5Z" transform="translate(3.618 0.067)"/></g></svg>