<svg xmlns="http://www.w3.org/2000/svg" width="35.401" height="30.344" viewBox="0 0 35.401 30.344"><defs><style>.a{fill:#172239;}</style></defs><path class="a" d="M94.344,128a5.057,5.057,0,0,1,5.057,5.057v20.229a5.057,5.057,0,0,1-5.057,5.057H69.057A5.057,5.057,0,0,1,64,153.286V133.057A5.057,5.057,0,0,1,69.057,128Zm2.529,10.115H66.529v15.172a2.529,2.529,0,0,0,2.38,2.524l.148,0H94.344a2.529,2.529,0,0,0,2.524-2.38l0-.148Zm-21.409,11.8a.338.338,0,0,1,.337.337v1.854a.337.337,0,0,1-.337.337H70.237a.337.337,0,0,1-.337-.337v-1.854a.338.338,0,0,1,.337-.337Zm18.88-19.386H69.057a2.529,2.529,0,0,0-2.524,2.38l0,.148v2.529H96.872v-2.529a2.529,2.529,0,0,0-2.38-2.524Z" transform="translate(-64 -128)"/></svg>