<svg xmlns="http://www.w3.org/2000/svg" width="16.215" height="14.842" viewBox="0 0 16.215 14.842"><defs><style>.a{fill:#5a5c60;}</style></defs><path class="a" d="M9.228,17.457H5.933a6.715,6.715,0,0,1,9.421-4.623.72.72,0,0,0,.617-1.3,7.826,7.826,0,0,0-.828-.337,4.066,4.066,0,1,0-5.31,0A8.1,8.1,0,0,0,4.382,18.1a.721.721,0,0,0,.184.551.714.714,0,0,0,.533.235H9.234a.72.72,0,0,0,.72-.72.728.728,0,0,0-.726-.714ZM12.484,5.5A2.629,2.629,0,1,1,9.854,8.129,2.634,2.634,0,0,1,12.484,5.5Zm5.3,8.153a.721.721,0,0,0-.1,1.012,6.661,6.661,0,0,1,1.352,2.795H15.739a.72.72,0,1,0,0,1.44h4.135a.718.718,0,0,0,.717-.786A8.085,8.085,0,0,0,18.8,13.761a.72.72,0,0,0-1.015-.108Zm.563-1.852a.718.718,0,0,0-1.015,0l-4.6,4.593-1.6-1.6a.718.718,0,0,0-1.015,1.015l2.105,2.105a.72.72,0,0,0,1.018,0l5.1-5.1a.709.709,0,0,0,0-1.012Z" transform="translate(-4.379 -4.057)"/></svg>