<svg xmlns="http://www.w3.org/2000/svg" width="35.999" height="35.999" viewBox="0 0 35.999 35.999"><defs><style>.a{fill:#6e7191;}</style></defs><path class="a" d="M-7232-2544a17.891,17.891,0,0,1-7.007-1.414,17.938,17.938,0,0,1-5.721-3.857,17.92,17.92,0,0,1-3.858-5.721A17.889,17.889,0,0,1-7250-2562a17.893,17.893,0,0,1,1.415-7.007,17.928,17.928,0,0,1,3.858-5.722,17.931,17.931,0,0,1,5.721-3.857A17.887,17.887,0,0,1-7232-2580a17.881,17.881,0,0,1,7.006,1.415,17.936,17.936,0,0,1,5.721,3.857,17.935,17.935,0,0,1,3.857,5.722A17.893,17.893,0,0,1-7214-2562a17.891,17.891,0,0,1-1.415,7.006,17.937,17.937,0,0,1-3.857,5.721,17.936,17.936,0,0,1-5.721,3.857A17.887,17.887,0,0,1-7232-2544Zm5.641-12.289a.068.068,0,0,1,.044.017c.105.086.23.186.359.282a.069.069,0,0,1,.029.062.071.071,0,0,1-.035.06,11.773,11.773,0,0,1-1.8.857.073.073,0,0,0-.042.044.067.067,0,0,0,0,.06,15.6,15.6,0,0,0,1.179,1.918.074.074,0,0,0,.06.031.085.085,0,0,0,.02,0,19.046,19.046,0,0,0,5.779-2.915.072.072,0,0,0,.031-.053,19.593,19.593,0,0,0-.55-7,20.341,20.341,0,0,0-2.865-6.142.061.061,0,0,0-.031-.027,19.026,19.026,0,0,0-4.7-1.458h-.012a.072.072,0,0,0-.062.038,12.942,12.942,0,0,0-.586,1.2,17.629,17.629,0,0,0-2.64-.2,17.653,17.653,0,0,0-2.64.2,12.381,12.381,0,0,0-.595-1.2.075.075,0,0,0-.064-.038h-.013a19.024,19.024,0,0,0-4.7,1.458.06.06,0,0,0-.029.027,19.526,19.526,0,0,0-3.414,13.14.074.074,0,0,0,.031.055,19.124,19.124,0,0,0,5.766,2.915.08.08,0,0,0,.022,0,.073.073,0,0,0,.06-.031,13.6,13.6,0,0,0,1.179-1.918.072.072,0,0,0,0-.06.071.071,0,0,0-.043-.042,12.7,12.7,0,0,1-1.8-.859.08.08,0,0,1-.037-.06.07.07,0,0,1,.029-.062c.111-.083.225-.173.358-.282a.07.07,0,0,1,.044-.015.075.075,0,0,1,.03.006,13.942,13.942,0,0,0,5.82,1.294,13.726,13.726,0,0,0,5.788-1.294A.067.067,0,0,1-7226.358-2556.29Zm-1.982-2.265a2.215,2.215,0,0,1-2.076-2.327,2.215,2.215,0,0,1,2.076-2.327,1.966,1.966,0,0,1,1.4.6,2.413,2.413,0,0,1,.672,1.724,2.469,2.469,0,0,1-.6,1.645A1.958,1.958,0,0,1-7228.34-2558.555Zm-7.674,0a2.215,2.215,0,0,1-2.076-2.327,2.215,2.215,0,0,1,2.076-2.327,1.965,1.965,0,0,1,1.4.6,2.412,2.412,0,0,1,.672,1.724A2.215,2.215,0,0,1-7236.015-2558.555Z" transform="translate(7250 2580)"/></svg>