<svg xmlns="http://www.w3.org/2000/svg" width="32" height="32" viewBox="0 0 32 32"><defs><style>.a{fill:rgba(255,255,255,0);stroke:rgba(112,112,112,0);}.b{fill:#fff;}.c{stroke:none;}.d{fill:none;}</style></defs><g transform="translate(-374 -393)"><g class="a" transform="translate(374 393)"><rect class="c" width="32" height="32"/><rect class="d" x="0.5" y="0.5" width="31" height="31"/></g><path class="b" d="M17.767,30.7a.964.964,0,0,1,0-1.369,19.514,19.514,0,0,0,0-27.674A.969.969,0,1,1,19.139.283a21.446,21.446,0,0,1,0,30.413.97.97,0,0,1-1.372,0Zm-5.827-2.9a.966.966,0,0,1,0-1.37,15.416,15.416,0,0,0,0-21.865.969.969,0,0,1,1.372-1.37,17.35,17.35,0,0,1,0,24.6.972.972,0,0,1-1.372,0Zm-5.828-2.9a.968.968,0,0,1,0-1.37A11.263,11.263,0,0,0,9.45,15.489,11.258,11.258,0,0,0,6.111,7.462a.97.97,0,0,1,1.373-1.37,13.185,13.185,0,0,1,3.908,9.4,13.19,13.19,0,0,1-3.908,9.4.973.973,0,0,1-1.373,0Zm-5.827-2.9a.968.968,0,0,1,0-1.37,7.185,7.185,0,0,0,2.133-5.124A7.185,7.185,0,0,0,.284,10.366.97.97,0,0,1,1.657,9a9.108,9.108,0,0,1,2.7,6.493,9.111,9.111,0,0,1-2.7,6.494.973.973,0,0,1-1.373,0Z" transform="translate(377.269 393.51)"/></g></svg>