<svg xmlns="http://www.w3.org/2000/svg" width="40" height="40" viewBox="0 0 40 40"><defs><style>.a{fill:#e1e4f4;}.b{fill:#6b8cef;}</style></defs><g transform="translate(-150 -761)"><g transform="translate(90.045 697.103)"><path class="a" d="M79.955,83.9m-20,0a20,20,0,1,0,20-20A20,20,0,0,0,59.955,83.9Z"/></g><path class="b" d="M121.3,136.37c0-.144-.722-2.6-2.309-7.5a1.257,1.257,0,0,0-1.154-.866H105.863a1.1,1.1,0,0,0-1.154.866l-2.309,7.5v8.37a1.138,1.138,0,0,0,1.154,1.154h16.451a1.138,1.138,0,0,0,1.154-1.154ZM106.152,129.3h11.689l2.02,6.494H114.81a.51.51,0,0,0-.577.577,2.165,2.165,0,1,1-4.329,0,.682.682,0,0,0-.722-.722h-5.051Zm2.886,1.3a.722.722,0,1,0,0,1.443H115.1a.722.722,0,1,0,0-1.443Zm-1.587,2.6a.722.722,0,1,0,0,1.443h9.091a.722.722,0,1,0,0-1.443Z" transform="translate(58.148 644.053)"/></g></svg>