<svg xmlns="http://www.w3.org/2000/svg" width="26" height="26" viewBox="0 0 26 26"><defs><style>.a{fill:none;}.b{fill:#fcfcfd;}</style></defs><rect class="a" width="26" height="26"/><g transform="translate(-33.909 -25.959)"><path class="b" d="M85.6,40.234l-8.729,0a.93.93,0,0,0-.645.294.92.92,0,0,0-.246.664v8.366a.928.928,0,0,0,.886.965H85.6a.914.914,0,0,0,.881-.941V41.2A.937.937,0,0,0,85.6,40.234Zm-.7,8.714H77.557V41.805h7.348v7.143ZM75.286,27.7a.922.922,0,0,0-.642-.3H65.917a.91.91,0,0,0-.879.941v8.346a.912.912,0,0,0,.86.962h8.745a.93.93,0,0,0,.645-.294.92.92,0,0,0,.246-.664v-8.33A.942.942,0,0,0,75.286,27.7Zm-1.328,8.38H66.61v-7.1h7.346v7.1Z" transform="translate(-28.832 0)"/><path class="b" d="M53.6,38.812H55a.08.08,0,0,0,.062-.029.093.093,0,0,0,.019-.064A5.678,5.678,0,0,0,49.7,33.991a.887.887,0,0,1-.7-.845.84.84,0,0,1,.836-.845,7.257,7.257,0,0,1,6.808,6.441.08.08,0,0,0,.079.072h1.588l-2.362,3.515ZM44.03,55.149c-.029,0-.057,0-.086,0A7.283,7.283,0,0,1,37.1,47.789a.074.074,0,0,0-.024-.057.083.083,0,0,0-.057-.024H35.5l2.362-3.515,2.362,3.515H38.717a.081.081,0,0,0-.081.081,5.63,5.63,0,0,0,5.483,5.667.849.849,0,0,1-.088,1.693Z" transform="translate(0 -4.783)"/></g></svg>