<svg xmlns="http://www.w3.org/2000/svg" width="32" height="32" viewBox="0 0 32 32"><defs><style>.a{fill:none;}</style></defs><path d="M2011.038,9301.914v-.095a1.128,1.128,0,0,0-.745-1.032c-.014-.006-.029-.011-.045-.019a1.118,1.118,0,0,0-.458-.1,1.131,1.131,0,0,0-.793.322l-.067.066a3.087,3.087,0,1,1-4.365-4.367l.067-.064a1.132,1.132,0,0,0,.224-1.253.011.011,0,0,0,0-.008,1.135,1.135,0,0,0-1.04-.69h-.195a3.085,3.085,0,0,1,0-6.171h.1a1.132,1.132,0,0,0,1.033-.743.248.248,0,0,1,.018-.045,1.135,1.135,0,0,0-.225-1.253l-.065-.067a3.087,3.087,0,1,1,4.365-4.365l.065.065a1.129,1.129,0,0,0,.793.322,1.111,1.111,0,0,0,.46-.1.87.87,0,0,1,.213-.06,1.132,1.132,0,0,0,.577-.984v-.194a3.086,3.086,0,0,1,6.172,0v.1a1.135,1.135,0,0,0,.689,1.038.018.018,0,0,0,.009,0,1.143,1.143,0,0,0,1.251-.225l.067-.067a3.087,3.087,0,1,1,4.365,4.367l-.067.064a1.134,1.134,0,0,0-.224,1.254.867.867,0,0,1,.059.213,1.133,1.133,0,0,0,.984.576h.193a3.086,3.086,0,1,1,0,6.172h-.1a1.136,1.136,0,0,0-1.038.689s0,0,0,.007a1.135,1.135,0,0,0,.225,1.253l.065.066a3.087,3.087,0,1,1-4.365,4.365l-.065-.066a1.138,1.138,0,0,0-.8-.321,1.126,1.126,0,0,0-.458.1.013.013,0,0,0-.007,0,1.136,1.136,0,0,0-.691,1.04v.193a3.086,3.086,0,1,1-6.172,0Zm-.189-2.566a2.666,2.666,0,0,1,1.733,2.445v.121a1.543,1.543,0,0,0,3.087,0v-.2a2.693,2.693,0,0,1,4.572-1.916s.005,0,.007,0l.068.07a1.545,1.545,0,1,0,2.185-2.184l-.07-.068a.023.023,0,0,0-.005-.007,2.7,2.7,0,0,1,1.913-4.574h.106a1.542,1.542,0,1,0,0-3.085h-.2a2.682,2.682,0,0,1-2.456-1.626.785.785,0,0,1-.06-.24,2.666,2.666,0,0,1,.6-2.8.015.015,0,0,1,.007-.008l.069-.068a1.545,1.545,0,0,0-2.183-2.186l-.07.071-.005,0a2.7,2.7,0,0,1-4.574-1.913v-.108a1.542,1.542,0,0,0-3.085,0v.2a2.684,2.684,0,0,1-1.625,2.457.83.83,0,0,1-.242.06,2.675,2.675,0,0,1-2.8-.6s-.005-.006-.007-.006l-.069-.07a1.545,1.545,0,1,0-2.185,2.184l.07.068a.029.029,0,0,0,.005.008,2.774,2.774,0,0,1-1.9,4.666h-.123a1.543,1.543,0,0,0,0,3.087h.2a2.7,2.7,0,0,1,1.917,4.572s0,.006-.007.006l-.068.069a1.545,1.545,0,0,0,2.183,2.186l.07-.069a.054.054,0,0,0,.005-.008,2.684,2.684,0,0,1,2.933-.545Zm-1.06-7.849a4.243,4.243,0,1,1,4.243,4.245A4.249,4.249,0,0,1,2009.789,9291.5Zm1.543,0a2.7,2.7,0,1,0,2.7-2.7A2.7,2.7,0,0,0,2011.332,9291.5Z" transform="translate(-1998.032 -9275.5)"/><rect class="a" width="32" height="32"/></svg>