<svg xmlns="http://www.w3.org/2000/svg" width="26" height="26" viewBox="0 0 26 26"><defs><style>.a{fill:none;}.b{fill:#fff;}</style></defs><rect class="a" width="26" height="26"/><g transform="translate(-63.123 -63.575)"><path class="b" d="M751.543,748.615l-4.368-4.433a.9.9,0,1,0-1.28,1.262l4.368,4.433a.9.9,0,1,0,1.28-1.262Z" transform="translate(-664.069 -662.232)"/><path class="b" d="M85.676,78.592a2.006,2.006,0,0,0,1.089-1.413,1.943,1.943,0,0,0-.588-1.625c-1.158-1.278-3.093-3.327-3.673-3.939-.144-.832-.631-3.619-.969-5.33a1.976,1.976,0,0,0-1.014-1.41,1.918,1.918,0,0,0-1.708.024c-1.58.742-4.14,2-4.9,2.375-.847-.1-3.744-.452-5.449-.624a1.822,1.822,0,0,0-1.482.533,1.975,1.975,0,0,0-.562,1.583c.182,1.735.542,4.638.647,5.479-.363.766-1.615,3.417-2.337,5.02A1.923,1.923,0,0,0,64.7,81a1.779,1.779,0,0,0,1.257.917c1.668.326,4.592.836,5.45.985.619.592,2.7,2.585,3.966,3.742a1.969,1.969,0,0,0,1.34.593,1.531,1.531,0,0,0,.239-.019,1.864,1.864,0,0,0,1.323-1.038c.861-1.527,2.265-4.154,2.671-4.915.733-.406,3.217-1.786,4.728-2.671ZM84.862,77.2c-1.762,1.032-4.871,2.749-4.9,2.766a.806.806,0,0,0-.322.328c-.018.033-1.765,3.318-2.765,5.092a.809.809,0,0,1-.173.229.808.808,0,0,1-.234-.163c-1.474-1.352-4.092-3.863-4.118-3.888a.807.807,0,0,0-.421-.213c-.037-.006-3.715-.641-5.655-1.02a.211.211,0,0,1-.134-.07c-.012-.023-.023-.127.069-.329.841-1.867,2.41-5.172,2.425-5.205a.808.808,0,0,0,.072-.448c0-.036-.46-3.662-.673-5.68a.359.359,0,0,1,.1-.275.2.2,0,0,1,.149-.067h.027c1.986.2,5.619.645,5.655.65a.81.81,0,0,0,.455-.078c.032-.016,3.237-1.6,5.082-2.468a.377.377,0,0,1,.3-.045.413.413,0,0,1,.159.283c.4,2,1,5.5,1,5.532a.808.808,0,0,0,.21.419c.025.026,2.462,2.594,3.815,4.089a.741.741,0,0,1,.19.292C85.163,76.958,85.089,77.065,84.862,77.2Z"/><path class="b" d="M297.081,483.152a.9.9,0,0,0-1.274,1.269l.653.655a.9.9,0,0,0,1.274-1.269Z" transform="translate(-225.109 -407.482)"/><path class="b" d="M477.894,302.921a.9.9,0,1,0,1.274-1.269l-.653-.655a.9.9,0,0,0-1.274,1.269Z" transform="translate(-401.893 -229.997)"/><path class="b" d="M454.135,440.817a.9.9,0,0,0-.687,1.07,1.468,1.468,0,0,1-.325,1.2,1.376,1.376,0,0,1-1.169.312.9.9,0,0,0-.4,1.752,2.93,2.93,0,0,0,.655.069,3.066,3.066,0,0,0,2.189-.865,3.235,3.235,0,0,0,.808-2.85A.9.9,0,0,0,454.135,440.817Z" transform="translate(-376.554 -366.579)"/></g></svg>