<svg xmlns="http://www.w3.org/2000/svg" width="13.279" height="14.386" viewBox="0 0 13.279 14.386"><defs><style>.a{fill:#1e5eff;}</style></defs><path class="a" d="M108.148,72.6h-5.533a.553.553,0,0,0,0,1.107h5.533a.553.553,0,1,0,0-1.107Zm2.767-6.086h-3.873V65.409a1.107,1.107,0,0,0-1.107-1.107h-1.107a1.107,1.107,0,0,0-1.107,1.107v1.107H99.848a1.107,1.107,0,0,0-1.107,1.107v9.959a1.107,1.107,0,0,0,1.107,1.107h11.066a1.107,1.107,0,0,0,1.107-1.107V67.622A1.107,1.107,0,0,0,110.914,66.516Zm-6.086-.553a.553.553,0,1,1,1.107,0v1.107a.553.553,0,0,1-1.107,0Zm6.086,10.513a1.107,1.107,0,0,1-1.107,1.107h-8.853a1.107,1.107,0,0,1-1.107-1.107V68.729a1.107,1.107,0,0,1,1.107-1.107h2.767a1.107,1.107,0,0,0,1.107,1.107h1.107a1.107,1.107,0,0,0,1.107-1.107h2.767a1.107,1.107,0,0,1,1.107,1.107v7.746Zm-2.767-6.64h-5.533a.553.553,0,0,0,0,1.107h5.533a.553.553,0,0,0,0-1.107Zm-2.767,5.533h-2.767a.553.553,0,1,0,0,1.107h2.767a.553.553,0,1,0,0-1.107Z" transform="translate(-98.741 -64.303)"/></svg>