<svg xmlns="http://www.w3.org/2000/svg" width="32" height="32" viewBox="0 0 32 32"><defs><style>.a{fill:none;}</style></defs><rect class="a" width="32" height="32"/><path d="M84.415,69.433a11.958,11.958,0,0,1-4.892-22.849,1.134,1.134,0,1,1,.921,2.072,9.626,9.626,0,1,0,12.489,13.18,1.158,1.158,0,0,1,2.072,1.036A11.725,11.725,0,0,1,84.415,69.433ZM97.077,57.462A12.7,12.7,0,0,0,84.415,44.8a1.18,1.18,0,0,0-1.151,1.151l.115,11.511a1.154,1.154,0,0,0,1.151,1.151h11.4A1.119,1.119,0,0,0,97.077,57.462ZM85.624,47.16a10.454,10.454,0,0,1,9.151,9.151H85.739Z" transform="translate(-68.789 -41.117)"/></svg>