<svg xmlns="http://www.w3.org/2000/svg" width="19.844" height="19.869" viewBox="0 0 19.844 19.869"><path d="M80.763,67.65H80.3v-.217A3.712,3.712,0,0,0,76.62,63.7H68.281A3.712,3.712,0,0,0,64.6,67.432v8.454a3.712,3.712,0,0,0,3.681,3.732h.461v.217a3.712,3.712,0,0,0,3.681,3.732h8.339a3.712,3.712,0,0,0,3.681-3.732V71.382A3.712,3.712,0,0,0,80.763,67.65Zm-12.02,3.732v6.467h-.461a1.952,1.952,0,0,1-1.936-1.963V67.432a1.954,1.954,0,0,1,1.936-1.965H76.62a1.951,1.951,0,0,1,1.936,1.965v.217H72.424A3.712,3.712,0,0,0,68.743,71.382ZM82.7,79.836A1.952,1.952,0,0,1,80.763,81.8H72.424a1.951,1.951,0,0,1-1.936-1.963V71.382a1.954,1.954,0,0,1,1.936-1.965h8.339A1.951,1.951,0,0,1,82.7,71.382Zm-2.617-5.112H77.465V72.072a.872.872,0,1,0-1.743,0v2.652H73.105a.885.885,0,0,0,0,1.77h2.617v2.652a.872.872,0,1,0,1.743,0V76.492h2.617a.884.884,0,0,0,0-1.768Z" transform="translate(-64.6 -63.7)"/></svg>