<svg xmlns="http://www.w3.org/2000/svg" xmlns:xlink="http://www.w3.org/1999/xlink" width="36" height="36" viewBox="0 0 36 36"><defs><style>.a{fill:#fff;}.b{fill:#6e7191;}.c{clip-path:url(#a);}</style><clipPath id="a"><circle class="a" cx="12" cy="12" r="12" transform="translate(1266.93 4528.93)"/></clipPath></defs><g transform="translate(-1266 -4367)"><circle class="b" cx="18" cy="18" r="18" transform="translate(1266 4367)"/><g class="c" transform="translate(5.07 -155.93)"><path class="a" d="M21.372,8.182l-8.847,5.107L3.9,8.307A2.5,2.5,0,0,1,6.391,5.969h12.5A2.5,2.5,0,0,1,21.372,8.182Zm.016,1.829v7.775a2.5,2.5,0,0,1-2.5,2.5H6.391a2.5,2.5,0,0,1-2.5-2.5V10.143L12.13,14.9A.8.8,0,0,0,13,14.852a.232.232,0,0,0,.033-.019l8.355-4.822Z" transform="translate(1266.29 4527.802)"/></g></g></svg>