<svg xmlns="http://www.w3.org/2000/svg" width="24" height="24" viewBox="0 0 24 24"><defs><style>.a{fill:none;}.b{fill:#707070;}</style></defs><rect class="a" width="24" height="24"/><path class="b" d="M12.771,13.642l-5.244-5.2-5.243,5.2a.966.966,0,0,1-1.377,0l-.071-.07a1.077,1.077,0,0,1,0-1.51l5.17-5.13L.837,1.8a1.077,1.077,0,0,1,0-1.51L.907.219a.967.967,0,0,1,1.377,0l5.243,5.2,5.244-5.2a.967.967,0,0,1,1.377,0l.07.071a1.076,1.076,0,0,1,0,1.51L9.048,6.929l5.169,5.13a1.076,1.076,0,0,1,0,1.51l-.07.07a.966.966,0,0,1-1.377,0Z" transform="translate(4.473 5.07)"/></svg>