<svg xmlns="http://www.w3.org/2000/svg" width="27.103" height="27.102" viewBox="0 0 27.103 27.102"><defs><style>.a{fill:#172239;}</style></defs><path class="a" d="M29.174,5.721H9.524A3.729,3.729,0,0,0,5.8,9.448v4.387a.992.992,0,0,0,1.016.987A1.044,1.044,0,0,0,7.83,13.774V9.448A1.7,1.7,0,0,1,9.524,7.754h19.65a1.7,1.7,0,0,1,1.694,1.694V29.1a1.7,1.7,0,0,1-1.694,1.694H9.524A1.7,1.7,0,0,1,7.83,29.1V20.254H23.772a1.016,1.016,0,0,0,1.016-1.016c0-.011-.007-.022-.007-.033a1.006,1.006,0,0,0-.291-.752l-4.625-4.625a1.017,1.017,0,0,0-1.438,1.438l2.957,2.957H6.956a.591.591,0,0,0-.07.015.347.347,0,0,0-.072-.018A1.016,1.016,0,0,0,5.8,19.236V29.1a3.729,3.729,0,0,0,3.727,3.727h19.65A3.729,3.729,0,0,0,32.9,29.1V9.447a3.729,3.729,0,0,0-3.727-3.725Z" transform="translate(-5.797 -5.721)"/></svg>