<svg xmlns="http://www.w3.org/2000/svg" width="15.538" height="15.538" viewBox="0 0 15.538 15.538"><g transform="translate(-85.333 -85.333)"><path d="M93.1,86.887A6.215,6.215,0,1,1,86.887,93.1,6.215,6.215,0,0,1,93.1,86.887m0-1.554a7.769,7.769,0,1,0,7.769,7.769A7.769,7.769,0,0,0,93.1,85.333Z" transform="translate(0 0)"/><path d="M472.36,241.111l-1.713-1.713v-3.954a.777.777,0,1,0-1.554,0v4.273a.678.678,0,0,0,0,.155v.043a.77.77,0,0,0,.035.1v.031a.7.7,0,0,0,.151.221l1.942,1.942a.791.791,0,1,0,1.138-1.1Z" transform="translate(-376.768 -146.614)"/></g></svg>