<svg xmlns="http://www.w3.org/2000/svg" width="24" height="24" viewBox="0 0 24 24"><defs><style>.a{fill:rgba(119,126,144,0);}.b{fill:#777e90;}</style></defs><rect class="a" width="24" height="24"/><path class="b" d="M96.012,268.815c-4.592,0-8.223-2.136-10.679-6.407C87.79,258.136,91.42,256,96.012,256s8.223,2.136,10.679,6.407C104.235,266.679,100.6,268.815,96.012,268.815Zm.214-10.679A9.547,9.547,0,0,0,88,262.407a9.547,9.547,0,0,0,8.223,4.272,8.84,8.84,0,0,0,7.8-4.272,8.84,8.84,0,0,0-7.8-4.272Zm-.214,7.475a3.2,3.2,0,1,1,3.2-3.2A3.147,3.147,0,0,1,96.012,265.611Zm0-2.136a1.068,1.068,0,1,0-1.068-1.068A1.009,1.009,0,0,0,96.012,263.475Z" transform="translate(-84.012 -250.407)"/></svg>