<svg xmlns="http://www.w3.org/2000/svg" width="36" height="35.999" viewBox="0 0 36 35.999"><defs><style>.a{fill:#6e7191;}</style></defs><g transform="translate(-1058 -4367)"><path class="a" d="M-7302,389a17.888,17.888,0,0,1-7.006-1.415,17.943,17.943,0,0,1-5.721-3.858,17.941,17.941,0,0,1-3.858-5.721A17.891,17.891,0,0,1-7320,371a17.891,17.891,0,0,1,1.415-7.006,17.941,17.941,0,0,1,3.858-5.721,17.944,17.944,0,0,1,5.721-3.858A17.889,17.889,0,0,1-7302,353a17.889,17.889,0,0,1,7.006,1.415,17.941,17.941,0,0,1,5.721,3.858,17.939,17.939,0,0,1,3.858,5.721A17.891,17.891,0,0,1-7284,371a17.891,17.891,0,0,1-1.415,7.006,17.939,17.939,0,0,1-3.858,5.721,17.939,17.939,0,0,1-5.721,3.858A17.888,17.888,0,0,1-7302,389Zm-10.493-10.416a12.149,12.149,0,0,0,6.579,1.93h.147a12.1,12.1,0,0,0,4.644-.922,12.1,12.1,0,0,0,3.941-2.627,12.1,12.1,0,0,0,2.666-3.992,12.092,12.092,0,0,0,.913-4.711v-.557a8.691,8.691,0,0,0,2.1-2.225,8.534,8.534,0,0,1-2.479.682,4.3,4.3,0,0,0,1.891-2.383,8.62,8.62,0,0,1-2.741,1.049,4.321,4.321,0,0,0-3.128-1.347,4.284,4.284,0,0,0-1.591.305,4.285,4.285,0,0,0-2.711,4,4.367,4.367,0,0,0,.116.975,12.248,12.248,0,0,1-8.88-4.514,4.286,4.286,0,0,0-.588,2.164A4.185,4.185,0,0,0-7309.79,370c-.691-.02-2.046-.205-2.046-.536v.053a4.417,4.417,0,0,0,1.038,2.722,4.415,4.415,0,0,0,2.51,1.478,4.055,4.055,0,0,1-1.049.147,4.227,4.227,0,0,1-.788-.073,4.332,4.332,0,0,0,4.032,2.991,8.659,8.659,0,0,1-5.353,1.868A8.791,8.791,0,0,1-7312.493,378.584Z" transform="translate(8378 4014)"/></g></svg>