<svg xmlns="http://www.w3.org/2000/svg" width="15.412" height="11.623" viewBox="0 0 15.412 11.623"><defs><style>.a{fill:#1e5eff;}</style></defs><g transform="translate(-1.667 -4.21)"><path class="a" d="M5,5.833A2.853,2.853,0,0,0,7.917,2.917,2.853,2.853,0,0,0,5,0,2.853,2.853,0,0,0,2.083,2.917,2.853,2.853,0,0,0,5,5.833Zm.833.79H4.167A4.171,4.171,0,0,0,0,10.79v.833H10V10.79A4.171,4.171,0,0,0,5.833,6.623Zm8.4-4.173L10.652,6.027,9.6,4.876,8.4,6.128l2.255,2.253,4.76-4.752Z" transform="translate(1.667 4.21)"/></g></svg>