<svg xmlns="http://www.w3.org/2000/svg" width="18" height="18" viewBox="0 0 18 18"><defs><style>.a{fill:rgba(0,0,0,0);}</style></defs><g transform="translate(-160.187 -368.187)"><rect class="a" width="18" height="18" transform="translate(160.187 368.187)"/><path d="M20.178,24.243a4.066,4.066,0,1,1,4.066-4.066A4.049,4.049,0,0,1,20.178,24.243Zm0-6.776a2.71,2.71,0,1,0,2.71,2.71A2.675,2.675,0,0,0,20.178,17.467ZM8.433,24.243A2.024,2.024,0,0,1,6.4,22.21V18.145a2.024,2.024,0,0,1,2.033-2.033H12.5a2.024,2.024,0,0,1,2.033,2.033V22.21A2.024,2.024,0,0,1,12.5,24.243H8.433Zm0-6.776a.729.729,0,0,0-.678.678V22.21a.729.729,0,0,0,.678.678H12.5a.729.729,0,0,0,.678-.678V18.145a.729.729,0,0,0-.678-.678H8.433Zm9.712-2.936A2.024,2.024,0,0,1,16.112,12.5V8.433A2.024,2.024,0,0,1,18.145,6.4H22.21a2.024,2.024,0,0,1,2.033,2.033V12.5a2.024,2.024,0,0,1-2.033,2.033Zm0-6.776a.729.729,0,0,0-.678.678V12.5a.729.729,0,0,0,.678.678H22.21a.729.729,0,0,0,.678-.678V8.433a.729.729,0,0,0-.678-.678H18.145ZM8.433,14.531A2.024,2.024,0,0,1,6.4,12.5V8.433A2.024,2.024,0,0,1,8.433,6.4H12.5a2.024,2.024,0,0,1,2.033,2.033V12.5A2.024,2.024,0,0,1,12.5,14.531H8.433Zm0-6.776a.729.729,0,0,0-.678.678V12.5a.729.729,0,0,0,.678.678H12.5a.729.729,0,0,0,.678-.678V8.433a.729.729,0,0,0-.678-.678H8.433Z" transform="translate(153.866 361.865)"/></g></svg>