<svg xmlns="http://www.w3.org/2000/svg" width="19.533" height="19.532" viewBox="0 0 19.533 19.532"><defs><style>.a{fill:#b1b5c3;}</style></defs><g transform="translate(0)"><path class="a" d="M10.658,19.532a2.971,2.971,0,0,1-2.976-2.508L6.943,12.59l-4.434-.739A2.939,2.939,0,0,1,.021,9.235,2.94,2.94,0,0,1,1.848,6.122L16.064.2a2.474,2.474,0,0,1,3.052.933,2.449,2.449,0,0,1,.218,2.336L13.41,17.685A2.906,2.906,0,0,1,10.658,19.532ZM17.029,2h0a.5.5,0,0,0-.2.04L2.617,7.969a1,1,0,0,0,.22,1.909l4.434.739a2,2,0,0,1,1.643,1.644L9.654,16.7a.991.991,0,0,0,.992.836.969.969,0,0,0,.918-.616L17.488,2.7a.491.491,0,0,0-.044-.467.5.5,0,0,0-.415-.226Z" transform="translate(0 0)"/></g></svg>