<svg xmlns="http://www.w3.org/2000/svg" width="36" height="36" viewBox="0 0 36 36"><defs><style>.a{fill:#6b8cef;}</style></defs><g transform="translate(-61.781 -66.881)"><path class="a" d="M119.98,623.281l11.86-3.323,1.227-1.229-8.349-8.35-1.24,1.238-3.5,11.664Z" transform="translate(-58.199 -520.4)"/><path class="a" d="M256.041,233.639l8.281,8.41,16.184-16.439-8.28-8.41-16.185,16.438Z" transform="translate(-188.13 -145.111)"/><path class="a" d="M659.963,106.371l-3.359-3.36c-1.922-1.922-3.068-1.922-4.989,0l-2.375,2.377,8.349,8.349,2.375-2.376c1.921-1.922,1.921-3.068,0-4.99Z" transform="translate(-563.821 -34.688)"/><path class="a" d="M74.862,69.755c-1.7-1.7-2.721-1.7-4.425,0L63.4,76.8l-1.234-1.234,7.4-7.4a4.361,4.361,0,0,1,6.169,0l4.078,4.078L78.578,73.47l-3.716-3.716Z"/><path class="a" d="M96.113,271.24l2.468-2.468,1.234,1.234-2.468,2.468-.146-.146,1.379,1.381,3.7-3.7,1.235,1.234-3.7,3.7.377.377-1.234,1.234-5.929-5.929,1.234-1.234,1.85,1.851Z" transform="translate(-29.633 -193.777)"/><path class="a" d="M559.747,527.242l3.7,3.7,1.851,1.851,5.807-5.808c1.7-1.7,1.7-2.721,0-4.425l-3.895-3.894,1.234-1.234,4.257,4.257a4.362,4.362,0,0,1,0,6.169l-6.169,6.169-1.234,1.234-1.233-1.234-6.108-6.108,1.234-1.234.556.557Z" transform="translate(-476.198 -432.38)"/><path class="a" d="M607.695,671.575l-3.7,3.7-1.234-1.234,3.7-3.7,1.235,1.235Z" transform="translate(-519.15 -579.218)"/><path class="a" d="M667.639,747.574l1.234,1.234-3.084,3.084-1.234-1.234,3.084-3.084Z" transform="translate(-578.49 -653.33)"/><path class="a" d="M741.768,747.574" transform="translate(-652.618 -653.372)"/></g></svg>