<svg xmlns="http://www.w3.org/2000/svg" width="22" height="22" viewBox="0 0 22 22"><defs><style>.a{opacity:0;}</style></defs><rect class="a" width="22" height="22" rx="11"/><g transform="translate(1 3.5)"><path d="M17.93,4.062a2.327,2.327,0,0,1,.039.508A11.583,11.583,0,0,1,16.6,10a11.155,11.155,0,0,1-3.945,4.414A11.27,11.27,0,0,1,6.289,16.25,11.38,11.38,0,0,1,0,14.414q.43.039.977.039A8.132,8.132,0,0,0,6.094,12.7a3.816,3.816,0,0,1-2.4-.8A4.079,4.079,0,0,1,2.266,9.883q.391.039.742.039A5.207,5.207,0,0,0,4.1,9.8,4.133,4.133,0,0,1,1.758,8.359,3.932,3.932,0,0,1,.82,5.781V5.7a3.861,3.861,0,0,0,1.836.547A4.55,4.55,0,0,1,1.328,4.766,3.978,3.978,0,0,1,1.406.742a11.31,11.31,0,0,0,3.73,3.047,11.354,11.354,0,0,0,4.707,1.25A5.693,5.693,0,0,1,9.766,4.1a4.067,4.067,0,0,1,.547-2.051A4.014,4.014,0,0,1,11.8.547,3.962,3.962,0,0,1,13.828,0a3.913,3.913,0,0,1,1.66.352,4.639,4.639,0,0,1,1.348.937A8.345,8.345,0,0,0,19.453.312a4.07,4.07,0,0,1-1.8,2.266A8.811,8.811,0,0,0,20,1.914,9.016,9.016,0,0,1,17.93,4.062Z"/></g></svg>