<svg xmlns="http://www.w3.org/2000/svg" width="20" height="20" viewBox="0 0 20 20"><defs><style>.a{fill:none;}.b{fill:#0145ff;}</style></defs><g transform="translate(0.655 0.655)"><rect class="a" width="20" height="20" transform="translate(-0.655 -0.655)"/><g transform="translate(3.263 3.263)"><path class="b" d="M0,13.518a.75.75,0,0,1-.75-.75V0A.75.75,0,0,1,0-.75.75.75,0,0,1,.75,0V12.768A.75.75,0,0,1,0,13.518Z" transform="translate(6.384)"/><path class="b" d="M12.768.75H0A.75.75,0,0,1-.75,0,.75.75,0,0,1,0-.75H12.768a.75.75,0,0,1,.75.75A.75.75,0,0,1,12.768.75Z" transform="translate(0 6.384)"/></g></g></svg>