<svg xmlns="http://www.w3.org/2000/svg" xmlns:xlink="http://www.w3.org/1999/xlink" width="120" height="120" viewBox="0 0 120 120"><defs><style>.a{fill:#d7dbec;}.b{fill:#336dff;}.c{fill:#fff;opacity:0;}.d{clip-path:url(#a);}.e{fill:#131523;}.f{fill:#8994aa;}.g{clip-path:url(#b);}</style><clipPath id="a"><ellipse class="a" cx="21" cy="20.5" rx="21" ry="20.5" transform="translate(-0.246 -0.047)"/></clipPath><clipPath id="b"><ellipse class="b" cx="34.5" cy="35" rx="34.5" ry="35" transform="translate(0.465 -0.085)"/></clipPath></defs><g transform="translate(-0.38 -0.38)"><rect class="c" width="120" height="120" transform="translate(0.38 0.38)"/><g transform="translate(8.626 22.427)"><ellipse class="a" cx="21" cy="20.5" rx="21" ry="20.5" transform="translate(-0.246 -0.047)"/><g class="d"><ellipse class="e" cx="7" cy="6.5" rx="7" ry="6.5" transform="translate(13.754 8.953)"/><path class="e" d="M-.031,9.976A15.4,15.4,0,0,1,14.3,0,15.394,15.394,0,0,1,28.6,9.889,19.87,19.87,0,0,1,14.243,16,19.871,19.871,0,0,1-.031,9.976Z" transform="translate(5.754 25.953)"/></g><g transform="translate(23.289 6.038)"><ellipse class="f" cx="34.5" cy="35" rx="34.5" ry="35" transform="translate(0.465 -0.085)"/><g class="g"><circle class="a" cx="11.5" cy="11.5" r="11.5" transform="translate(23.465 14.915)"/><path class="a" d="M0,17.522A27.238,27.238,0,0,1,25.135,0C36.945,0,47,7.86,50.759,18.842A34.622,34.622,0,0,1,26,29.327,34.718,34.718,0,0,1,0,17.522Z" transform="translate(9.368 43.128)"/></g></g></g></g></svg>