<svg xmlns="http://www.w3.org/2000/svg" width="30.96" height="27.871" viewBox="0 0 30.96 27.871"><defs><style>.a{fill:#6c5dd3;}</style></defs><path class="a" d="M19.732,18.571A2.709,2.709,0,0,1,22.44,21.28l0,1.489c.181,3.389-2.338,5.1-6.859,5.1-4.5,0-7.068-1.687-7.068-5.044V21.28a2.709,2.709,0,0,1,2.708-2.708ZM2.708,10.833H9.481a6.2,6.2,0,0,0,1.651,5.958l.251.234-.162,0a4.256,4.256,0,0,0-4.1,3.108l-.053,0C2.564,20.133,0,18.446,0,15.089V13.542A2.709,2.709,0,0,1,2.708,10.833Zm25.536,0a2.709,2.709,0,0,1,2.708,2.708l0,1.489c.181,3.389-2.338,5.1-6.859,5.1l-.262,0a4.265,4.265,0,0,0-3.793-3.1l-.3-.011-.163,0a6.175,6.175,0,0,0,1.9-6.19Zm-12.768-3.1A4.643,4.643,0,1,1,12.193,9.1a4.643,4.643,0,0,1,3.283-1.36ZM6.964,0A4.643,4.643,0,1,1,3.681,1.36,4.643,4.643,0,0,1,6.964,0ZM23.988,0a4.643,4.643,0,1,1-3.283,1.36A4.643,4.643,0,0,1,23.988,0Z" transform="translate(0)"/></svg>