<svg xmlns="http://www.w3.org/2000/svg" width="12.542" height="15.397" viewBox="0 0 12.542 15.397"><defs><style>.a{fill:#1e5eff;}</style></defs><g transform="translate(-2.5)"><path class="a" d="M.523,0a.523.523,0,0,0,0,1.045H5.748A.523.523,0,1,0,5.748,0ZM0,2.613A.523.523,0,0,1,.523,2.09H5.748a.523.523,0,1,1,0,1.045H.523A.523.523,0,0,1,0,2.613ZM0,4.7a.523.523,0,0,1,.523-.523h2.09a.523.523,0,1,1,0,1.045H.523A.523.523,0,0,1,0,4.7Z" transform="translate(5.635 6.316)"/><path class="a" d="M7.839,0H2.09A2.09,2.09,0,0,0,0,2.09V13.307A2.09,2.09,0,0,0,2.09,15.4h8.361a2.09,2.09,0,0,0,2.09-2.09V4.7Zm0,1.045v2.09A1.568,1.568,0,0,0,9.406,4.7H11.5v8.6a1.045,1.045,0,0,1-1.045,1.045H2.09a1.045,1.045,0,0,1-1.045-1.045V2.09A1.045,1.045,0,0,1,2.09,1.045Z" transform="translate(2.5)"/></g></svg>