<svg xmlns="http://www.w3.org/2000/svg" width="20" height="20" viewBox="0 0 20 20"><defs><style>.a{fill:#8f95b2;}</style></defs><g transform="translate(0 -2)"><path class="a" d="M14.147,0a.736.736,0,0,1,.769.7v.789a5.818,5.818,0,0,1,3.622,1.358A4.74,4.74,0,0,1,20,6.488v8.486C20,18.074,17.83,20,14.337,20H5.663C2.17,20,0,18.047,0,14.9V6.487c0-2.924,1.935-4.8,5.092-5V.7A.736.736,0,0,1,5.862,0a.736.736,0,0,1,.769.7v.771h6.747V.7A.736.736,0,0,1,14.147,0Zm4.314,8.283H1.538V14.9c0,2.387,1.465,3.7,4.124,3.7h8.675c2.659,0,4.124-1.289,4.124-3.63Zm-3.9,5.853a.772.772,0,1,1-.009,0Zm-4.551,0a.772.772,0,1,1-.009,0Zm-4.561,0a.7.7,0,1,1,0,1.4.741.741,0,0,1-.774-.7.733.733,0,0,1,.765-.7Zm9.112-3.616a.772.772,0,1,1-.009,0Zm-4.551,0a.772.772,0,1,1-.009,0Zm-4.561,0a.7.7,0,1,1,0,1.4.741.741,0,0,1-.774-.7.733.733,0,0,1,.765-.7Zm7.924-7.656H6.631v.895a.736.736,0,0,1-.769.7.736.736,0,0,1-.769-.7V2.885c-2.3.175-3.554,1.438-3.554,3.6v.4H18.461v-.4a3.4,3.4,0,0,0-1.012-2.656,4.178,4.178,0,0,0-2.532-.945v.873a.773.773,0,0,1-1.538,0Z" transform="translate(0 2)"/></g></svg>