<svg xmlns="http://www.w3.org/2000/svg" width="28" height="28" viewBox="0 0 28 28"><defs><style>.a{fill:none;}</style></defs><g transform="translate(0.233)"><path d="M6.532,20.59V19.065H17.148V5.7H1.53v7.338H0V5.7A1.538,1.538,0,0,1,1.025,4.248c.007,0,.019-.015.028-.021s.019-.013.028-.017a.974.974,0,0,1,.234-.116l.049-.015L14.65.087A1.3,1.3,0,0,1,15.123,0a1.47,1.47,0,0,1,.616.14A1.5,1.5,0,0,1,16.5.98l.049.131V4.167h.595a1.509,1.509,0,0,1,1.091.452A1.476,1.476,0,0,1,18.663,5.7V19.048A1.532,1.532,0,0,1,17.14,20.59ZM6.464,4.167h8.571V1.582ZM8.118,9.63a.5.5,0,0,0,.41-.482V7.829a.5.5,0,0,1,.81-.376l4.81,4.351a.489.489,0,0,1,0,.755L9.319,16.5a.487.487,0,0,1-.791-.38V14.81a.474.474,0,0,0-.466-.486C4.337,14.123,2.23,17.2.14,19.185.088,18.664,1.708,11.1,8.118,9.63Z" transform="translate(4.964 3.635)"/><rect class="a" width="28" height="28" transform="translate(-0.233)"/></g></svg>