<svg xmlns="http://www.w3.org/2000/svg" width="44.502" height="42.792" viewBox="0 0 44.502 42.792"><defs><style>.a{fill:#ffa600;}</style></defs><g transform="matrix(0.819, -0.574, 0.574, 0.819, 126.098, 19.973)"><g transform="translate(-104.851 -73.418)"><path class="a" d="M0,2.321A2.321,2.321,0,0,1,2.321,0H30.179A2.321,2.321,0,0,1,32.5,2.321ZM16.25,20.893a4.643,4.643,0,1,0-3.283-1.36,4.643,4.643,0,0,0,3.283,1.36Z" transform="translate(2.321)"/><path class="a" d="M0,2.321A2.321,2.321,0,0,1,2.321,0h32.5a2.321,2.321,0,0,1,2.321,2.321V20.893a2.321,2.321,0,0,1-2.321,2.321H2.321A2.321,2.321,0,0,1,0,20.893Zm6.964,0A4.643,4.643,0,0,1,2.321,6.964V16.25a4.643,4.643,0,0,1,4.643,4.643H30.179a4.643,4.643,0,0,1,4.643-4.643V6.964a4.643,4.643,0,0,1-4.643-4.643Z" transform="translate(0 4.643)"/></g></g></svg>