<svg xmlns="http://www.w3.org/2000/svg" xmlns:xlink="http://www.w3.org/1999/xlink" width="24" height="24" viewBox="0 0 24 24"><defs><style>.a{fill:rgba(0,0,0,0);}.b{clip-path:url(#a);}.c,.d{fill:none;stroke:#1c1c24;stroke-linecap:round;stroke-width:1.9px;}.d,.f{opacity:0;}.e,.f{fill:#1c1c24;}</style><clipPath id="a"><rect width="24" height="24"/></clipPath></defs><rect class="a" width="24" height="24"/><g class="b"><g transform="translate(34 2)"><line class="c" x2="20" y2="15"/><line class="d" x2="20" transform="translate(0 8)"/><line class="c" y1="15" x2="20"/></g></g><g transform="translate(3.705 4.909)"><path class="e" d="M16,14.95a.946.946,0,0,1-.625-.235l-16-14A.95.95,0,0,1-.715-.626.95.95,0,0,1,.626-.715l16,14A.95.95,0,0,1,16,14.95Z" transform="translate(0.295 0.091)"/><path class="f" d="M16,.95H0A.95.95,0,0,1-.95,0,.95.95,0,0,1,0-.95H16a.95.95,0,0,1,.95.95A.95.95,0,0,1,16,.95Z" transform="translate(0.295 7.091)"/><path class="e" d="M0,14.95a.948.948,0,0,1-.715-.324.95.95,0,0,1,.089-1.341l16-14a.95.95,0,0,1,1.341.089A.95.95,0,0,1,16.626.715l-16,14A.946.946,0,0,1,0,14.95Z" transform="translate(0.295 0.091)"/></g></svg>