<svg xmlns="http://www.w3.org/2000/svg" xmlns:xlink="http://www.w3.org/1999/xlink" width="36" height="36" viewBox="0 0 36 36"><defs><style>.a{fill:#fff;}.b{fill:#6e7191;}.c{clip-path:url(#a);}</style><clipPath id="a"><circle class="a" cx="15" cy="15" r="15" transform="translate(1096.163 4526.163)"/></clipPath></defs><g transform="translate(-1214 -4367)"><circle class="b" cx="18" cy="18" r="18" transform="translate(1214 4367)"/><g class="c" transform="translate(120.837 -156.163)"><path class="a" d="M23.509,11.835v0a.842.842,0,0,1-1.546.122.828.828,0,0,1-.051-.634h0a4.065,4.065,0,0,0-.862-4A4.141,4.141,0,0,0,17.124,6.06a.84.84,0,0,1-1-.639.834.834,0,0,1,.647-.987,5.823,5.823,0,0,1,5.518,1.773A5.715,5.715,0,0,1,23.509,11.835ZM17.7,8.722a.723.723,0,0,1-.544-.1.713.713,0,0,1,.242-1.3,2.835,2.835,0,0,1,2.689.862,2.785,2.785,0,0,1,.59,2.743.708.708,0,0,1-.358.416.731.731,0,0,1-.551.044.712.712,0,0,1-.463-.9h0a1.366,1.366,0,0,0-.287-1.342A1.4,1.4,0,0,0,17.7,8.722Zm.642,4.063A3.309,3.309,0,0,1,21,15.754c0,2.729-3.963,6.165-9.92,6.165-4.543,0-9.19-2.187-9.19-5.783,0-1.881,1.2-4.054,3.265-6.106,2.758-2.738,5.976-3.985,7.186-2.782a2.48,2.48,0,0,1,.242,2.542c-.179.551.522.245.522.247,2.229-.928,4.176-.982,4.886.027a2.261,2.261,0,0,1-.007,2.165c-.162.4.049.463.36.556Zm-7.255,7.845c3.625-.355,6.376-2.56,6.14-4.926s-3.365-3.99-6.99-3.635S3.861,14.633,4.1,16.994,7.462,20.986,11.087,20.631Zm.362-6.738a2.681,2.681,0,0,1,1.967,3.755,3.922,3.922,0,0,1-4.673,1.969,2.666,2.666,0,0,1-1.717-3.809A3.959,3.959,0,0,1,11.449,13.893Zm-1.318,3.931a.955.955,0,0,0-.4-1.443,1.386,1.386,0,0,0-1.634.546.95.95,0,0,0,.372,1.438A1.377,1.377,0,0,0,10.131,17.824Zm0,0" transform="translate(1098.325 4528.05)"/></g></g></svg>