<svg xmlns="http://www.w3.org/2000/svg" width="36" height="35.999" viewBox="0 0 36 35.999"><defs><style>.a{fill:#6e7191;}</style></defs><g transform="translate(-1162 -4367)"><path class="a" d="M-7302,389a17.888,17.888,0,0,1-7.006-1.415,17.943,17.943,0,0,1-5.721-3.858,17.941,17.941,0,0,1-3.858-5.721A17.891,17.891,0,0,1-7320,371a17.891,17.891,0,0,1,1.415-7.006,17.941,17.941,0,0,1,3.858-5.721,17.944,17.944,0,0,1,5.721-3.858A17.889,17.889,0,0,1-7302,353a17.889,17.889,0,0,1,7.006,1.415,17.941,17.941,0,0,1,5.721,3.858,17.939,17.939,0,0,1,3.858,5.721A17.891,17.891,0,0,1-7284,371a17.891,17.891,0,0,1-1.415,7.006,17.939,17.939,0,0,1-3.858,5.721,17.939,17.939,0,0,1-5.721,3.858A17.888,17.888,0,0,1-7302,389Zm-3.156-8.737h0v2.925a16.126,16.126,0,0,0,3.156.31,15.984,15.984,0,0,0,4.576-.665v-2.6c0-.469.009-1.607,0-2.032a3.015,3.015,0,0,0-.9-2.063l.016,0a7.236,7.236,0,0,0,3.689-.993,5.561,5.561,0,0,0,2.609-3.9,7.918,7.918,0,0,0-.355-4.573,4.643,4.643,0,0,0-.935-1.482c.892-1.652-.116-3.845-.126-3.867a6.464,6.464,0,0,0-4,1.547c-.892-.508-3.837-.514-3.867-.514s-2.974.006-3.865.514a6.568,6.568,0,0,0-3.994-1.547c-.01.021-1.023,2.205-.13,3.867a4.637,4.637,0,0,0-.934,1.482,7.924,7.924,0,0,0-.354,4.573,5.561,5.561,0,0,0,2.609,3.9,7.269,7.269,0,0,0,3.705,1,2.567,2.567,0,0,0-.771,2.063,3.584,3.584,0,0,1-1.631.434,2.536,2.536,0,0,1-.946-.177,4.205,4.205,0,0,1-1.935-1.8,3.037,3.037,0,0,0-1.959-1.178,1.373,1.373,0,0,0-.619.148.215.215,0,0,0-.043.187c.032.176.245.465,1.076.843l0,.006a21.508,21.508,0,0,1,1.413,2.443c.318.743,1.7,1.325,3.153,1.325a5.593,5.593,0,0,0,1.356-.166Z" transform="translate(8482 4014)"/></g></svg>