<svg xmlns="http://www.w3.org/2000/svg" width="22" height="22" viewBox="0 0 22 22"><defs><style>.a{fill:rgba(255,255,255,0);stroke:rgba(112,112,112,0);}.b{stroke:none;}.c{fill:none;}</style></defs><g transform="translate(-2.31 -1.333)"><g class="a" transform="translate(2.31 1.333)"><rect class="b" width="22" height="22"/><rect class="c" x="0.5" y="0.5" width="21" height="21"/></g><path d="M16.314,19.033a7.251,7.251,0,1,0-14.5,0,.906.906,0,0,1-1.812,0,9.065,9.065,0,0,1,12.589-8.352,9.06,9.06,0,0,1,5.537,8.352.906.906,0,0,1-1.812,0Zm-8.157,0V17.674H6.8a.906.906,0,0,1,0-1.812H8.157V14.5a.906.906,0,1,1,1.812,0v1.36h1.363a.906.906,0,0,1,0,1.812H9.969v1.359a.906.906,0,0,1-1.812,0ZM4.534,4.531a4.531,4.531,0,1,1,4.531,4.53A4.537,4.537,0,0,1,4.534,4.531Zm1.808,0a2.721,2.721,0,1,0,2.722-2.72A2.725,2.725,0,0,0,6.342,4.531Z" transform="translate(4.248 2.249)"/></g></svg>