<svg xmlns="http://www.w3.org/2000/svg" width="28" height="28" viewBox="0 0 28 28"><defs><style>.a{fill:none;}</style></defs><g transform="translate(-338.999 -711)"><g transform="translate(340.839 713.196)"><path d="M.8,16.13a.8.8,0,0,1-.8-.793V.8A.8.8,0,0,1,.8,0H19.663a.8.8,0,0,1,.795.8V6.754a.794.794,0,0,1-1.588,0V1.589H1.592V14.542H19.663a.794.794,0,1,1,0,1.589ZM15.384,12a.8.8,0,1,1,0-1.591h7.887L21.688,8.193a.8.8,0,0,1,.184-1.11.792.792,0,0,1,1.11.184l2.483,3.475A.8.8,0,0,1,24.816,12ZM9.236,4.568a.794.794,0,0,1,0-1.589h1.987a.794.794,0,1,1,0,1.589Zm-4.965,0a.794.794,0,1,1,0-1.589H6.256a.794.794,0,1,1,0,1.589Z" transform="translate(-0.05 3.828)"/></g><g transform="translate(-48 1)"><g transform="translate(387.232 710)"><rect class="a" width="28" height="28" transform="translate(-0.233)"/></g></g></g></svg>