<svg xmlns="http://www.w3.org/2000/svg" width="20" height="20" viewBox="0 0 20 20"><defs><style>.a{fill:#b1b5c3;}</style></defs><path class="a" d="M17,18H3a3,3,0,0,1-3-3V3A3,3,0,0,1,3,0H17a3,3,0,0,1,3,3V15A3,3,0,0,1,17,18ZM3,2A1,1,0,0,0,2,3V15a1,1,0,0,0,1,1H17a1,1,0,0,0,1-1V3a1,1,0,0,0-1-1Z" transform="translate(0 2)"/><path class="a" d="M7,6H1A1,1,0,0,1,1,4H7A1,1,0,0,1,7,6Zm4-4H4A1,1,0,1,1,4,0h7a1,1,0,1,1,0,2Z" transform="translate(4 10)"/><path class="a" d="M11,6a1,1,0,0,1-1-1V1a1,1,0,0,1,2,0V5A1,1,0,0,1,11,6ZM1,6A1,1,0,0,1,0,5V1A1,1,0,0,1,2,1V5A1,1,0,0,1,1,6Z" transform="translate(4 0)"/></svg>