<svg xmlns="http://www.w3.org/2000/svg" width="24" height="24" viewBox="0 0 24 24"><defs><style>.a{fill:none;}.b{fill:#fff;}</style></defs><rect class="a" width="24" height="24"/><path class="b" d="M12.243,13.712,7,8.509l-5.243,5.2a.966.966,0,0,1-1.377,0l-.071-.07a1.077,1.077,0,0,1,0-1.51L5.479,7,.31,1.87a1.077,1.077,0,0,1,0-1.51L.379.289a.967.967,0,0,1,1.377,0L7,5.491l5.244-5.2a.967.967,0,0,1,1.377,0l.07.071a1.076,1.076,0,0,1,0,1.51L8.52,7l5.169,5.13a1.076,1.076,0,0,1,0,1.51l-.07.07a.966.966,0,0,1-1.377,0Z" transform="translate(5 5)"/></svg>