<svg xmlns="http://www.w3.org/2000/svg" width="28" height="28" viewBox="0 0 28 28"><defs><style>.a{fill:none;}</style></defs><g transform="translate(3.586 5.211)"><path d="M12.116,7.594a1.132,1.132,0,0,0-1.6-1.6L7.357,9.152V1.132a1.132,1.132,0,1,0-2.264,0v8.02L1.932,5.991a1.132,1.132,0,0,0-1.6,1.6l5.093,5.093a1.132,1.132,0,0,0,1.6,0Z" transform="translate(3.963 0)"/><path d="M1.132,0A1.132,1.132,0,0,1,2.264,1.132V3.4A1.132,1.132,0,0,0,3.4,4.527H16.977A1.132,1.132,0,0,0,18.108,3.4V1.132a1.132,1.132,0,1,1,2.264,0V3.4a3.4,3.4,0,0,1-3.4,3.4H3.4A3.4,3.4,0,0,1,0,3.4V1.132A1.132,1.132,0,0,1,1.132,0Z" transform="translate(0 10.753)"/></g><rect class="a" width="28" height="28"/></svg>