<svg xmlns="http://www.w3.org/2000/svg" width="26.432" height="26.052" viewBox="0 0 26.432 26.052"><defs><style>.a{fill:#6b8cef;}</style></defs><g transform="translate(0)"><path class="a" d="M8.987,13.022v5.219a1.439,1.439,0,0,0,1.7,1.56c1.539-.141,3.079-.3,4.615-.459a.748.748,0,0,1,.926.79V24.61a1.388,1.388,0,0,1-1.382,1.426,41.815,41.815,0,0,1-8.271-.449,11.049,11.049,0,0,1-2.206-.656,5.451,5.451,0,0,1-3.108-3.953,18.6,18.6,0,0,1-.568-4.589C.67,13.878.637,11.364.739,8.849A21.156,21.156,0,0,1,1.33,4.916,5.511,5.511,0,0,1,5.7.632,26.345,26.345,0,0,1,11.672.009c1.05-.02,2.1,0,3.148,0a1.38,1.38,0,0,1,1.421,1.344c.02,1.531,0,3.062,0,4.589a.679.679,0,0,1-.817.728c-1.241-.1-2.478-.236-3.719-.357-.351-.036-.7-.085-1.054-.111A1.446,1.446,0,0,0,9.01,7.719C8.984,9.489,8.987,11.255,8.987,13.022Z" transform="translate(-0.669 0)"/><path class="a" d="M8.773,12.906V9.3c0-.593.286-.878.883-.826,1.5.134,3,.269,4.5.439a1.476,1.476,0,0,0,1.864-1.619V1.207c0-.744.328-1.029,1.054-.911.8.125,1.608.239,2.393.439a5.484,5.484,0,0,1,4.313,4.53,27.79,27.79,0,0,1,.542,4.386c.085,2.255.072,4.524,0,6.782a27.093,27.093,0,0,1-.509,4.075,5.686,5.686,0,0,1-4.854,4.753c-.614.128-1.237.229-1.858.311-.762.1-1.067-.187-1.067-.957V18.452a1.4,1.4,0,0,0-1.625-1.518c-1.539.128-3.079.285-4.615.446-.656.069-1-.2-1-.859Z" transform="translate(2.054 0.091)"/></g></svg>