<svg xmlns="http://www.w3.org/2000/svg" width="110" height="70" viewBox="0 0 110 70"><defs><style>.a{fill:none;}.b{fill:#ff2400;}.c{fill:#7e89a3;stroke:#000;}.d{fill:#79fed1;}.e{fill:#fff;}.f,.g{stroke:none;}.g{fill:#fff;}</style></defs><g transform="translate(-670 -222)"><rect class="a" width="110" height="70" transform="translate(670 222)"/><g transform="translate(683.28 229)"><g transform="translate(0 0)"><line class="b" x2="36.573" transform="translate(8.051 6.89)"/><g transform="translate(0 0)"><rect class="c" width="78.847" height="52.647" rx="1.843"/><rect width="48.712" height="32.745" rx="1.293" transform="translate(4.605 5.391)"/><g transform="translate(9.765 7.306)"><path class="d" d="M288.5,150.3s-.752-.445-1.092.171a12.305,12.305,0,0,0-.65,8.164A13.727,13.727,0,0,0,288.5,162.4a1.252,1.252,0,0,1-.138,1.675,12.167,12.167,0,0,1-3.826,3.587,2.057,2.057,0,0,0,1.537,0s.286.066.083.349a6.6,6.6,0,0,1-1.01.69,2.242,2.242,0,0,1,1.69.716,14.772,14.772,0,0,0,5.039,6.242,9.148,9.148,0,0,0,1.294.716,44.351,44.351,0,0,0-3.54,4.607h16.341l4.22-26.684-2.606-.472q-.956-.171-1.925-.258l-.622-.055a17.154,17.154,0,0,0-3.458.025q-1.131.13-2.246.366l-1.6.341a8.175,8.175,0,0,1-5.573-1.4Z" transform="translate(-284.541 -150.149)"/><path class="d" d="M310.021,150.3s.752-.445,1.092.171a12.305,12.305,0,0,1,.65,8.164,13.727,13.727,0,0,1-1.742,3.758,1.249,1.249,0,0,0,.138,1.675,12.167,12.167,0,0,0,3.826,3.587,2.057,2.057,0,0,1-1.537,0s-.286.066-.083.349a6.6,6.6,0,0,0,1.01.69,2.241,2.241,0,0,0-1.689.716,14.773,14.773,0,0,1-5.039,6.242,9.285,9.285,0,0,1-1.294.716,44.363,44.363,0,0,1,3.54,4.607H292.551l.263-22.735a4.462,4.462,0,0,1,5-4.338l3.69.417a6.229,6.229,0,0,0,4.254-1.065Z" transform="translate(-275.592 -150.149)"/><g transform="translate(2.534 1.193)"><path d="M294.074,155.166s-2.4,1.6-2.716,2.7c0,0-4.624-2.708-5.619-6.97C285.738,150.893,289.985,157.018,294.074,155.166Z" transform="translate(-285.738 -150.51)"/><path d="M297.117,155.342s2.469,1.491,2.831,2.577c0,0,4.5-2.907,5.31-7.207C305.258,150.712,301.282,157.015,297.117,155.342Z" transform="translate(-273.025 -150.712)"/><path d="M292.663,152.356s.574.766,1.035,3.618a19.792,19.792,0,0,0-1.181-3.347S292.362,152.33,292.663,152.356Z" transform="translate(-278.208 -148.877)"/><path d="M293.456,152.237s.159-.26.332-.008l-.33,4.81Z" transform="translate(-277.115 -149.14)"/><path d="M295.114,152.411s.087-.025.059.2a8.442,8.442,0,0,0-1.323,3.663S294.318,152.509,295.114,152.411Z" transform="translate(-276.675 -148.814)"/><path d="M290.575,154.344a7.159,7.159,0,0,1,3.045,1.361s.188.379-.2.368a7.163,7.163,0,0,0-2.932-1.723" transform="translate(-280.433 -146.654)"/><path d="M298.232,154.692a7.152,7.152,0,0,0-3.186.987s-.233.351.155.387a7.187,7.187,0,0,1,3.119-1.359" transform="translate(-275.416 -146.265)"/><path d="M289.867,161.385a6.023,6.023,0,0,1-1.671-2.06,1.873,1.873,0,0,1,.195-1.857,3.37,3.37,0,0,1,.927-.843,5.439,5.439,0,0,1,5.791.1,5.751,5.751,0,0,1,2.229,2.738s.529,1.459-2.212,2.28a5.852,5.852,0,0,0,1.507-1.133,1.433,1.433,0,0,0,.123-1.626l-.028-.044a2.608,2.608,0,0,0-.8-.781,3.965,3.965,0,0,1-1.385,2.782s-1.948,1.131-3.021-.542a4.778,4.778,0,0,1-.506-3.7,6.527,6.527,0,0,0-1.719.987,1.778,1.778,0,0,0-.637,1.537,1.63,1.63,0,0,0,.165.559A7.979,7.979,0,0,0,289.867,161.385Z" transform="translate(-283.17 -144.986)"/><path d="M302.317,160.993a6.03,6.03,0,0,0,1.563-2.145,1.877,1.877,0,0,0-.292-1.844,3.331,3.331,0,0,0-.97-.794,5.441,5.441,0,0,0-5.778.4,5.751,5.751,0,0,0-2.086,2.85s-.451,1.484,2.329,2.164a5.9,5.9,0,0,1-1.565-1.057,1.428,1.428,0,0,1-.208-1.615l.028-.047a2.615,2.615,0,0,1,.754-.822,3.966,3.966,0,0,0,1.527,2.708s2.005,1.027,2.99-.7a4.766,4.766,0,0,0,.311-3.72,6.482,6.482,0,0,1,1.77.9,1.776,1.776,0,0,1,.716,1.5,1.617,1.617,0,0,1-.135.565A7.979,7.979,0,0,1,302.317,160.993Z" transform="translate(-275.695 -145.293)"/><g transform="translate(10.047 16.975)"><path d="M293.589,159.3s.654-.906,1.268-.426a.821.821,0,0,1-.186,1.084,6.406,6.406,0,0,1-.811.779s4.414,3.18,6.362-.4c0,0,.159-.078.078.129a2.9,2.9,0,0,1-3.091,1.785,3.668,3.668,0,0,1-3.337,2.9Z" transform="translate(-287.014 -158.73)"/><path d="M297.074,159.24s-.741-.838-1.3-.3a.827.827,0,0,0,.294,1.063,6.6,6.6,0,0,0,.887.694s-4.069,3.621-6.371.248c0,0-.165-.061-.064.138a2.9,2.9,0,0,0,3.256,1.467,3.67,3.67,0,0,0,3.614,2.556Z" transform="translate(-290.483 -158.695)"/></g></g></g><rect class="d" width="25.51" height="0.824" rx="0.183" transform="translate(27.806 47.193)"/><rect class="d" width="15.787" height="0.824" rx="0.195" transform="translate(37.528 43.106)"/></g></g><g transform="translate(60.872 29.539)"><rect class="e" width="11.939" height="27.135" rx="2" transform="translate(19.187 1.726) rotate(45)"/><g transform="translate(-512.02 -511.99)"><path class="f" d="M 519.4549560546875 542.0952758789062 C 517.3106689453125 542.0952758789062 515.2905883789062 541.3099975585938 513.7669067382812 539.884033203125 L 513.6458129882812 539.7701416015625 C 512.1361694335938 538.3784790039062 511.2703247070312 536.403076171875 511.2703247070312 534.349853515625 C 511.2703247070312 532.2962036132812 512.13623046875 530.3206787109375 513.646240234375 528.9290771484375 L 518.2621459960938 524.5946044921875 L 519.4520874023438 523.477294921875 C 519.7767333984375 522.021728515625 520.5388793945312 520.6806640625 521.6500854492188 519.656005859375 L 528.2471313476562 513.4528198242188 C 529.77197265625 512.025634765625 531.7921752929688 511.2402648925781 533.9368286132812 511.2402648925781 C 536.0814819335938 511.2402648925781 538.1017456054688 512.025634765625 539.6254272460938 513.4515991210938 L 539.7514038085938 513.5700073242188 L 539.98779296875 513.7921142578125 L 539.98779296875 513.8004760742188 C 541.3493041992188 515.1742553710938 542.1239624023438 517.046142578125 542.1239624023438 518.9881591796875 C 542.1239624023438 521.0408935546875 541.25830078125 523.015380859375 539.7487182617188 524.4061279296875 L 535.133056640625 528.7454223632812 L 533.93896484375 529.8679809570312 C 533.6129150390625 531.3184204101562 532.8524169921875 532.6546020507812 531.7451782226562 533.6766967773438 L 525.1480712890625 539.8826904296875 C 523.6202392578125 541.3101196289062 521.5990600585938 542.0952758789062 519.4549560546875 542.0952758789062 Z M 517.1649780273438 536.5580444335938 C 517.793212890625 537.1302490234375 518.606689453125 537.4452514648438 519.4566650390625 537.4452514648438 C 520.3079223632812 537.4452514648438 521.1226806640625 537.1292114257812 521.7514038085938 536.555419921875 L 528.3472290039062 530.3508911132812 C 528.9437866210938 529.7891845703125 529.2724609375 529.0465698242188 529.2723999023438 528.2601318359375 C 529.2723999023438 527.4736938476562 528.9437255859375 526.731201171875 528.3469848632812 526.1693725585938 L 528.2249145507812 526.0545654296875 C 528.0421752929688 525.8829956054688 527.8309326171875 525.73095703125 527.5797119140625 525.59033203125 L 526.6868286132812 525.0904541015625 L 527.432373046875 524.3895263671875 L 529.8468017578125 522.119384765625 L 530.2933959960938 521.6994018554688 L 530.3616333007812 521.7476806640625 L 530.3616333007812 521.56640625 L 531.619873046875 522.723388671875 L 531.7420043945312 522.8359375 C 532.28564453125 523.3370971679688 532.7457885742188 523.9140625 533.1121215820312 524.5429077148438 L 532.9845581054688 524.2462158203125 L 533.3660888671875 523.8863525390625 L 536.3477783203125 521.0733642578125 C 536.9454345703125 520.5106201171875 537.2741088867188 519.767333984375 537.2738037109375 518.9798583984375 C 537.2734375 518.1935424804688 536.9449462890625 517.451904296875 536.3487548828125 516.8916015625 L 536.2297973632812 516.7796020507812 C 535.6026611328125 516.2059326171875 534.7894287109375 515.8900146484375 533.9393310546875 515.8900146484375 C 533.0892333984375 515.8900146484375 532.27587890625 516.2060546875 531.648681640625 516.77978515625 L 525.04736328125 522.9847412109375 L 525.044189453125 522.9877319335938 L 525.0409545898438 522.9906616210938 C 524.45849609375 523.5254516601562 524.1244506835938 524.2857666015625 524.1244506835938 525.0765991210938 C 524.1244506835938 525.8673706054688 524.4584350585938 526.6275024414062 525.0408325195312 527.1620483398438 L 525.1640625 527.2755126953125 L 525.1666870117188 527.2778930664062 L 525.1692504882812 527.2803344726562 C 525.3603515625 527.4595947265625 525.5733642578125 527.6137084960938 525.8023071289062 527.7383422851562 L 526.7119750976562 528.2333984375 L 525.9578247070312 528.9432373046875 L 523.54345703125 531.2156982421875 L 523.0892944335938 531.6431884765625 L 522.586181640625 531.2745361328125 C 522.273193359375 531.0452270507812 522.0071411132812 530.8270874023438 521.77294921875 530.6077270507812 L 521.6528930664062 530.4970703125 C 521.1045532226562 529.9920043945312 520.64111328125 529.409912109375 520.2731323242188 528.7750244140625 L 520.4105224609375 529.094970703125 L 520.0278930664062 529.4547119140625 L 517.0436401367188 532.2606201171875 L 517.0401000976562 532.2639770507812 L 517.0364379882812 532.267333984375 C 516.45361328125 532.8010864257812 516.119384765625 533.560546875 516.119384765625 534.3509521484375 C 516.119384765625 535.1412963867188 516.4536743164062 535.9009399414062 517.03662109375 536.4351196289062 L 517.0430297851562 536.4409790039062 L 517.04931640625 536.447021484375 L 517.1649780273438 536.5580444335938 Z"/><path class="g" d="M 533.9368286132812 511.990234375 C 532.0643310546875 511.990234375 530.1918334960938 512.659912109375 528.7609252929688 513.9992065429688 L 522.1611328125 520.2049560546875 C 520.7999267578125 521.4588012695312 520.0256958007812 523.2247924804688 520.0256958007812 525.0753173828125 C 520.0256958007812 526.9257202148438 520.7999267578125 528.6917114257812 522.1611328125 529.945556640625 L 522.2832641601562 530.05810546875 C 522.5181274414062 530.2783203125 522.7725219726562 530.4813232421875 523.0294189453125 530.6695556640625 L 525.4437866210938 528.3970947265625 C 525.1580200195312 528.2415771484375 524.8933715820312 528.0499267578125 524.6560668945312 527.8272705078125 L 524.53369140625 527.714599609375 C 523.7949829101562 527.0365600585938 523.3744506835938 526.0794677734375 523.3744506835938 525.0765991210938 C 523.3744506835938 524.0735473632812 523.7949829101562 523.1165161132812 524.53369140625 522.438232421875 L 531.1385498046875 516.22998046875 C 532.7230834960938 514.7767333984375 535.1558227539062 514.7767333984375 536.7401123046875 516.22998046875 L 536.8624267578125 516.3450927734375 C 538.410888671875 517.8004760742188 538.410888671875 520.1610107421875 536.8624267578125 521.618896484375 L 533.8807373046875 524.431884765625 C 534.3991088867188 525.6378173828125 534.643798828125 526.919677734375 534.6193237304688 528.198974609375 L 539.23779296875 523.8570556640625 C 540.599365234375 522.6041259765625 541.3739624023438 520.83837890625 541.3739624023438 518.9881591796875 C 541.3739624023438 517.1377563476562 540.599365234375 515.3718872070312 539.23779296875 514.1190185546875 L 539.23779296875 514.1165161132812 L 539.1129760742188 513.9992065429688 C 537.681884765625 512.659912109375 535.809326171875 511.990234375 533.9368286132812 511.990234375 M 530.3605346679688 522.665771484375 L 527.9461059570312 524.9359130859375 C 528.22998046875 525.0948486328125 528.49658203125 525.2808837890625 528.73876953125 525.5082397460938 L 528.861083984375 525.623291015625 C 530.4095458984375 527.0811157226562 530.4095458984375 529.439208984375 528.861083984375 530.8971557617188 L 522.2612915039062 537.10546875 C 520.6737670898438 538.558349609375 518.2396240234375 538.5584716796875 516.6522216796875 537.10546875 L 516.5299072265625 536.988037109375 C 515.7905883789062 536.310546875 515.369384765625 535.3538208007812 515.369384765625 534.3509521484375 C 515.369384765625 533.34814453125 515.7905883789062 532.391357421875 516.5299072265625 531.7142333984375 L 519.51416015625 528.9083251953125 C 519.0036010742188 527.71923828125 518.7516479492188 526.4351806640625 518.7755737304688 525.141357421875 L 514.1570434570312 529.478271484375 C 512.795166015625 530.7320556640625 512.0203247070312 532.4986572265625 512.0203247070312 534.349853515625 C 512.0203247070312 536.2011108398438 512.795166015625 537.9674682617188 514.1570434570312 539.2213745117188 L 514.2793579101562 539.33642578125 C 517.1414794921875 542.0150146484375 521.7673950195312 542.014892578125 524.6341552734375 539.33642578125 L 531.2337646484375 533.1280517578125 C 532.5941772460938 531.873779296875 533.3680419921875 530.1079711914062 533.3680419921875 528.2576904296875 C 533.3680419921875 526.4075927734375 532.5941772460938 524.6417236328125 531.2337646484375 523.387451171875 L 531.1116333007812 523.27490234375 L 531.1116333007812 523.2774658203125 C 530.8753662109375 523.0567626953125 530.6243896484375 522.8525390625 530.3605346679688 522.665771484375 M 533.9368286132812 510.490234375 C 536.2725219726562 510.490234375 538.4747924804688 511.3474731445312 540.137939453125 512.9039916992188 L 540.73779296875 513.4677734375 L 540.73779296875 513.5005493164062 C 542.1026611328125 514.9898681640625 542.8739624023438 516.9541625976562 542.8739624023438 518.9881591796875 C 542.8739624023438 521.2483520507812 541.9215087890625 523.4224243164062 540.2603149414062 524.9545288085938 L 534.6156616210938 530.26123046875 C 534.23046875 531.7691650390625 533.4163818359375 533.1537475585938 532.256591796875 534.2252197265625 L 525.658203125 540.4324951171875 C 523.9928588867188 541.9884033203125 521.7898559570312 542.8452758789062 519.4549560546875 542.8452758789062 C 517.11962890625 542.8452758789062 514.9175415039062 541.9880981445312 513.25439453125 540.431640625 L 513.1344604492188 540.3187866210938 C 511.4730834960938 538.7857055664062 510.5203247070312 536.610595703125 510.5203247070312 534.349853515625 C 510.5203247070312 532.0885009765625 511.4734497070312 529.9130249023438 513.1353759765625 528.3799438476562 L 518.77490234375 523.0842895507812 C 519.1589965820312 521.5709228515625 519.9749755859375 520.1814575195312 521.1389770507812 519.1071166992188 L 527.7333984375 512.9064331054688 C 529.39892578125 511.3475341796875 531.6011352539062 510.490234375 533.9368286132812 510.490234375 Z M 535.72021484375 517.3299560546875 C 535.2321166992188 516.885009765625 534.6000366210938 516.6400146484375 533.9393310546875 516.6400146484375 C 533.27880859375 516.6400146484375 532.6468505859375 516.8848876953125 532.1587524414062 517.3296508789062 L 525.5482177734375 523.5431518554688 C 525.1199951171875 523.936279296875 524.8744506835938 524.4951782226562 524.8744506835938 525.0765991210938 C 524.8744506835938 525.6578979492188 525.1199340820312 526.2166137695312 525.5479736328125 526.6094970703125 L 525.682373046875 526.7333374023438 C 525.8269653320312 526.8690185546875 525.9879150390625 526.9854736328125 526.1608276367188 527.07958984375 L 527.9801635742188 528.0697021484375 L 523.1491088867188 532.6168212890625 L 522.1428833007812 531.8795166015625 C 521.8062133789062 531.6328735351562 521.51806640625 531.3964233398438 521.2621459960938 531.1569213867188 L 521.1445922851562 531.048583984375 C 520.8544311523438 530.78125 520.5857543945312 530.4943237304688 520.3399658203125 530.1907958984375 L 517.5430297851562 532.8204345703125 C 517.1149291992188 533.2124633789062 516.869384765625 533.7703247070312 516.869384765625 534.3509521484375 C 516.869384765625 534.9315795898438 517.1150512695312 535.4896850585938 517.5433349609375 535.8821411132812 L 517.5687255859375 535.9059448242188 L 517.6766357421875 536.0095825195312 C 518.16552734375 536.4518432617188 518.7969970703125 536.6952514648438 519.4566650390625 536.6952514648438 C 520.11865234375 536.6952514648438 520.7522583007812 536.4501953125 521.241943359375 536.0050048828125 L 527.8333129882812 529.8045654296875 C 528.2775268554688 529.3863525390625 528.5224609375 528.837646484375 528.5223999023438 528.2601318359375 C 528.5223999023438 527.6826171875 528.2775268554688 527.1340942382812 527.8328857421875 526.7154541015625 L 527.7110595703125 526.600830078125 C 527.5738525390625 526.4720458984375 527.4107055664062 526.355224609375 527.21337890625 526.2447509765625 L 525.4276123046875 525.2449951171875 L 529.6116333007812 521.31103515625 L 529.6116333007812 519.8552856445312 L 532.2503051757812 522.284423828125 C 532.5416259765625 522.5530395507812 532.8110961914062 522.8412475585938 533.0575561523438 523.146240234375 L 535.8330688476562 520.52783203125 C 536.2791137695312 520.1078491210938 536.5239868164062 519.55859375 536.5237426757812 518.9801635742188 C 536.5234985351562 518.4028930664062 536.2789306640625 517.855224609375 535.8351440429688 517.4381103515625 L 535.72021484375 517.3299560546875 Z"/></g></g></g></g></svg>