<svg xmlns="http://www.w3.org/2000/svg" xmlns:xlink="http://www.w3.org/1999/xlink" width="101.256" height="100.518" viewBox="0 0 101.256 100.518"><defs><style>.a,.b{fill:none;}.a{clip-rule:evenodd;}.c{clip-path:url(#a);}.d{clip-path:url(#b);}.e{fill:#002fa6;}.f{clip-path:url(#c);}.g{fill:#336dff;}.h{clip-path:url(#e);}.i{fill:#fff;}</style><clipPath id="a"><path class="a" d="M70-36.792l-12.205,6.31L49.92-41.741l-13.74-.085-1.74-13.629-12.126-6.46,4.793-12.877L19.372-86.147,29.6-95.322l-1.572-13.65,13.32-3.37L46.3-125.158l13.361,3.206L70-131l10.34,9.048L93.7-125.158l4.951,12.817,13.32,3.37L110.4-95.322l10.228,9.174-7.735,11.356,4.793,12.877-12.126,6.46-1.74,13.629-13.74.085L82.205-30.482Z"/></clipPath><clipPath id="b"><path class="b" d="M-905,2285H695V-591H-905Z"/></clipPath><clipPath id="c"><path class="a" d="M70-44a36,36,0,0,0,36-36,36,36,0,0,0-36-36A36,36,0,0,0,34-80,36,36,0,0,0,70-44Z"/></clipPath><clipPath id="e"><path class="b" d="M82.919-92.161l4.162,4.322L64.191-65.8,52.879-77.109l4.243-4.243L64.27-74.2Z"/></clipPath></defs><g transform="translate(-19.372 131)"><g class="c"><g class="d"><path class="e" d="M18.372-132H121.628V-29.482H18.372Z"/></g></g><g class="f"><g class="d"><path class="g" d="M33-117h74v74H33Z"/></g></g><g class="h"><g class="d"><path class="i" d="M51.879-93.161h36.2V-64.8h-36.2Z"/></g></g></g></svg>