<svg xmlns="http://www.w3.org/2000/svg" width="110.017" height="70" viewBox="0 0 110.017 70"><defs><style>.a{fill:rgba(255,255,255,0);stroke:rgba(112,112,112,0);}.b,.d{fill:#51f0ca;}.b{stroke:#000;}.c{fill:#231815;}.e,.f{fill:#fff;}.f{font-size:16px;font-family:Poppins-ExtraBold, Poppins;font-weight:800;}.g,.i{stroke:none;}.h{fill:none;}.i{fill:#fff;}</style></defs><g transform="translate(-1016 -222)"><g class="a" transform="translate(1016 222)"><rect class="g" width="110" height="70"/><rect class="h" x="0.5" y="0.5" width="109" height="69"/></g><g transform="translate(1028 228.827)"><g transform="translate(0 0)"><rect class="b" width="79.897" height="53.347" rx="2.071" transform="translate(0)"/><rect class="c" width="46.908" height="31.532" rx="1.194" transform="translate(5.206 5.646)"/><g transform="translate(11.704 10.244)"><path class="d" d="M352.061,151.183s-.659-.4-.96.154a11.476,11.476,0,0,0-.571,7.4,12.654,12.654,0,0,0,1.531,3.4,1.159,1.159,0,0,1-.119,1.517,10.882,10.882,0,0,1-3.363,3.253,1.772,1.772,0,0,0,1.352,0s.25.057.071.315a5.759,5.759,0,0,1-.887.626,1.945,1.945,0,0,1,1.486.649,13.364,13.364,0,0,0,4.425,5.655,8.076,8.076,0,0,0,1.137.646,40.25,40.25,0,0,0-3.111,4.175H367.41l3.707-24.178-2.292-.425c-.559-.1-1.122-.185-1.691-.237l-.546-.05a14.6,14.6,0,0,0-3.037.023c-.662.078-1.322.19-1.974.334l-1.4.308a7.01,7.01,0,0,1-4.895-1.269Z" transform="translate(-348.579 -151.042)"/><path class="d" d="M369.821,151.183s.662-.4.963.154a11.466,11.466,0,0,1,.569,7.4,12.568,12.568,0,0,1-1.531,3.4,1.161,1.161,0,0,0,.121,1.517,10.831,10.831,0,0,0,3.361,3.25,1.752,1.752,0,0,1-1.349,0s-.253.06-.071.318a5.763,5.763,0,0,0,.887.626,1.942,1.942,0,0,0-1.486.649,13.358,13.358,0,0,1-4.427,5.655,7.922,7.922,0,0,1-1.137.646,39.877,39.877,0,0,1,3.111,4.175H354.475l.23-20.6a3.964,3.964,0,0,1,4.392-3.93l3.245.378a5.338,5.338,0,0,0,3.735-.964Z" transform="translate(-339.576 -151.042)"/></g><g transform="translate(44.261 45.185)"><g transform="translate(15.63 0)"><path d="M378.211,169.811v1.079l.933-.539.149.256-.933.539.933.539-.149.256-.933-.539v1.079h-.3V171.4l-.933.539-.149-.256.933-.539-.933-.539.149-.256.933.539v-1.079Z" transform="translate(-376.832 -169.811)"/><path d="M379.637,169.811v1.079l.933-.539.149.256-.933.539.933.539-.149.256-.933-.539v1.079h-.3V171.4l-.933.539-.149-.256.933-.539-.933-.539.149-.256.933.539v-1.079Z" transform="translate(-374.333 -169.811)"/><path d="M381.125,169.811v1.079l.933-.539.149.256-.933.539.933.539-.149.256-.933-.539v1.079h-.3V171.4l-.933.539-.149-.256.933-.539-.933-.539.149-.256.933.539v-1.079Z" transform="translate(-371.726 -169.811)"/><path d="M382.551,169.811v1.079l.933-.539.149.256-.933.539.933.539-.149.256-.933-.539v1.079h-.3V171.4l-.933.539-.149-.256.933-.539-.933-.539.149-.256.933.539v-1.079Z" transform="translate(-369.227 -169.811)"/></g><g transform="translate(0 0)"><path d="M372.532,169.811v1.079l.933-.539.149.256-.933.539.933.539-.149.256-.933-.539v1.079h-.3V171.4l-.933.539-.149-.256.933-.539-.933-.539.149-.256.933.539v-1.079Z" transform="translate(-371.153 -169.811)"/><path d="M373.958,169.811v1.079l.933-.539.149.256-.933.539.933.539-.149.256-.933-.539v1.079h-.3V171.4l-.933.539-.148-.256.933-.539-.933-.539.148-.256.933.539v-1.079Z" transform="translate(-368.654 -169.811)"/><path d="M375.446,169.811v1.079l.933-.539.148.256-.933.539.933.539-.148.256-.933-.539v1.079h-.3V171.4l-.933.539-.149-.256.933-.539-.933-.539.149-.256.933.539v-1.079Z" transform="translate(-366.047 -169.811)"/><path d="M376.872,169.811v1.079l.933-.539.149.256-.933.539.933.539-.149.256-.933-.539v1.079h-.3V171.4l-.933.539-.149-.256.933-.539-.933-.539.149-.256.933.539v-1.079Z" transform="translate(-363.548 -169.811)"/></g></g><g transform="translate(28.567 45.185)"><path d="M366.83,169.811v1.079l.933-.539.149.256-.933.539.933.539-.149.256-.933-.539v1.079h-.3V171.4l-.933.539-.149-.256.933-.539-.933-.539.149-.256.933.539v-1.079Z" transform="translate(-365.451 -169.811)"/><path d="M368.256,169.811v1.079l.933-.539.149.256-.933.539.933.539-.149.256-.933-.539v1.079h-.3V171.4l-.933.539-.148-.256.933-.539-.933-.539.148-.256.933.539v-1.079Z" transform="translate(-362.952 -169.811)"/><path d="M369.744,169.811v1.079l.933-.539.149.256-.933.539.933.539-.149.256-.933-.539v1.079h-.3V171.4l-.933.539-.149-.256.933-.539-.933-.539.149-.256.933.539v-1.079Z" transform="translate(-360.345 -169.811)"/><path d="M371.17,169.811v1.079l.933-.539.149.256-.933.539.933.539-.149.256-.933-.539v1.079h-.3V171.4l-.933.539-.149-.256.933-.539-.933-.539.149-.256.933.539v-1.079Z" transform="translate(-357.846 -169.811)"/></g><path d="M364.065,169.811v1.079l.933-.539.149.256-.933.539.933.539-.149.256-.933-.539v1.079h-.3V171.4l-.933.539-.148-.256.933-.539-.933-.539.148-.256.933.539v-1.079Z" transform="translate(-341.729 -124.626)"/><path d="M365.491,169.811v1.079l.933-.539.149.256-.933.539.933.539-.149.256-.933-.539v1.079h-.3V171.4l-.933.539-.149-.256.933-.539-.933-.539.149-.256.933.539v-1.079Z" transform="translate(-339.23 -124.626)"/><g transform="translate(5.206 45.185)"><g transform="translate(7.731 0)"><path d="M361.151,169.811v1.079l.933-.539.149.256-.933.539.933.539-.149.256-.933-.539v1.079h-.3V171.4l-.933.539-.149-.256.933-.539-.933-.539.149-.256.933.539v-1.079Z" transform="translate(-359.772 -169.811)"/><path d="M362.577,169.811v1.079l.933-.539.149.256-.933.539.933.539-.149.256-.933-.539v1.079h-.3V171.4l-.933.539-.149-.256.933-.539-.933-.539.149-.256.933.539v-1.079Z" transform="translate(-357.273 -169.811)"/></g><g transform="translate(0 0)"><path d="M358.342,169.811v1.079l.933-.539.149.256-.933.539.933.539-.149.256-.933-.539v1.079h-.3V171.4l-.933.539-.149-.256.933-.539-.933-.539.149-.256.933.539v-1.079Z" transform="translate(-356.963 -169.811)"/><path d="M359.768,169.811v1.079l.933-.539.149.256-.933.539.933.539-.149.256-.933-.539v1.079h-.3V171.4l-.933.539-.149-.256.933-.539-.933-.539.149-.256.933.539v-1.079Z" transform="translate(-354.464 -169.811)"/></g></g><g transform="translate(60.18 40.435)"><g transform="translate(7.731 0)"><path d="M381.125,168.085v1.079l.933-.539.149.259-.933.537.933.539-.149.259-.933-.539v1.076h-.3v-1.076l-.933.539-.149-.259.933-.539-.933-.537.149-.259.933.539v-1.079Z" transform="translate(-379.746 -168.085)"/><path d="M382.551,168.085v1.079l.933-.539.149.259-.933.537.933.539-.149.259-.933-.539v1.076h-.3v-1.076l-.933.539-.149-.259.933-.539-.933-.537.149-.259.933.539v-1.079Z" transform="translate(-377.247 -168.085)"/></g><g transform="translate(0 0)"><path d="M378.316,168.085v1.079l.933-.539.149.259-.933.537.933.539-.149.259-.933-.539v1.076h-.295v-1.076l-.936.539-.149-.259.936-.539-.936-.537.149-.259.936.539v-1.079Z" transform="translate(-376.937 -168.085)"/><path d="M379.74,168.085v1.079l.936-.539.146.259-.933.537.933.539-.146.259-.936-.539v1.076h-.295v-1.076l-.936.539-.146-.259.933-.539-.933-.537.146-.259.936.539v-1.079Z" transform="translate(-374.437 -168.085)"/></g></g><g transform="translate(56.185 6.761)"><g transform="translate(5.363)"><path d="M376.343,148.63v.746l.649-.372.1.178-.647.374.647.374-.1.178-.649-.374v.748h-.2v-.748l-.649.374-.1-.178.647-.374-.647-.374.1-.178.649.372v-.746Z" transform="translate(-375.388 -148.63)"/><path d="M377.769,148.63v.746l.649-.372.1.178-.647.374.647.374-.1.178-.649-.374v.748h-.2v-.748l-.649.374-.1-.178.647-.374-.647-.374.1-.178.649.372v-.746Z" transform="translate(-374.092 -148.63)"/></g><path d="M373.535,148.63v.746l.647-.372.1.178-.647.374.647.374-.1.178-.647-.374v.748h-.206v-.748l-.647.374-.1-.178.647-.374-.647-.374.1-.178.647.372v-.746Z" transform="translate(-372.579 -148.63)"/><path d="M374.961,148.63v.746l.647-.372.1.178-.647.374.647.374-.1.178-.647-.374v.748h-.206v-.748l-.647.374-.1-.178.647-.374-.647-.374.1-.178.647.372v-.746Z" transform="translate(-371.283 -148.63)"/></g><g transform="translate(56.185 13.614)"><g transform="translate(10.885)"><path d="M373.535,152.845v.746l.647-.372.1.178-.647.374.647.374-.1.178-.647-.374v.748h-.206v-.748l-.647.374-.1-.178.647-.374-.647-.374.1-.178.647.372v-.746Z" transform="translate(-372.579 -152.845)"/><path d="M374.961,152.845v.746l.647-.372.1.178-.647.374.647.374-.1.178-.647-.374v.748h-.206v-.748l-.647.374-.1-.178.647-.374-.647-.374.1-.178.647.372v-.746Z" transform="translate(-371.283 -152.845)"/><path d="M376.449,152.845v.746l.647-.372.1.178-.647.374.647.374-.1.178-.647-.374v.748h-.206v-.748l-.647.374-.1-.178.647-.374-.647-.374.1-.178.647.372v-.746Z" transform="translate(-369.93 -152.845)"/></g><path d="M367.833,152.845v.746l.647-.372.1.178-.647.374.647.374-.1.178-.647-.374v.748h-.206v-.748l-.647.374-.1-.178.647-.374-.647-.374.1-.178.647.372v-.746Z" transform="translate(-366.877 -152.845)"/><path d="M369.259,152.845v.746l.647-.372.1.178-.647.374.647.374-.1.178-.647-.374v.748h-.206v-.748l-.647.374-.1-.178.647-.374-.647-.374.1-.178.647.372v-.746Z" transform="translate(-365.581 -152.845)"/><path d="M370.747,152.845v.746l.647-.372.1.178-.647.374.647.374-.1.178-.647-.374v.748h-.206v-.748l-.647.374-.1-.178.647-.374-.647-.374.1-.178.647.372v-.746Z" transform="translate(-364.228 -152.845)"/><path d="M372.173,152.845v.746l.647-.372.1.178-.647.374.647.374-.1.178-.647-.374v.748h-.206v-.748l-.647.374-.1-.178.647-.374-.647-.374.1-.178.647.372v-.746Z" transform="translate(-362.932 -152.845)"/></g><g transform="translate(64.428 18.356)"><path d="M372.151,154.7v.748l.647-.374.1.179-.647.372.647.374-.1.179-.647-.374v.746h-.206v-.746l-.647.374-.1-.179.647-.374-.647-.372.1-.179.647.374V154.7Z" transform="translate(-371.195 -154.704)"/><path d="M373.577,154.7v.748l.647-.374.1.179-.647.372.647.374-.1.179-.647-.374v.746h-.206v-.746l-.647.374-.1-.179.647-.374-.647-.372.1-.179.647.374V154.7Z" transform="translate(-369.899 -154.704)"/></g><g transform="translate(56.185 18.356)"><path d="M367.833,154.7v.748l.647-.374.1.179-.647.372.647.374-.1.179-.647-.374v.746h-.206v-.746l-.647.374-.1-.179.647-.374-.647-.372.1-.179.647.374V154.7Z" transform="translate(-366.877 -154.704)"/><path d="M369.259,154.7v.748l.647-.374.1.179-.647.372.647.374-.1.179-.647-.374v.746h-.206v-.746l-.647.374-.1-.179.647-.374-.647-.372.1-.179.647.374V154.7Z" transform="translate(-365.581 -154.704)"/></g></g><g transform="translate(66.163 20.951)"><rect class="e" width="20.283" height="20.283" rx="7" transform="translate(5.382 1.063)"/><g transform="translate(-128.384 0)"><path class="g" d="M 153.2883758544922 38.59629821777344 L 133.1330718994141 38.59629821777344 C 132.2742919921875 38.59629821777344 131.4770965576172 38.43185806274414 130.7636108398438 38.10755920410156 C 130.0616302490234 37.78847122192383 129.4520874023438 37.3567008972168 128.9518737792969 36.82421112060547 C 128.4527282714844 36.29286956787109 128.0618286132812 35.66677856445312 127.7900543212891 34.96334838867188 C 127.5203552246094 34.26525115966797 127.3836059570312 33.51288986206055 127.3836059570312 32.72713851928711 L 127.3836059570312 20.0753002166748 C 127.3836059570312 19.09041976928711 127.7342147827148 18.23122024536133 128.4257049560547 17.52155876159668 C 129.1242370605469 16.80465888977051 129.98291015625 16.44116020202637 130.9778594970703 16.44116020202637 L 133.3725433349609 16.44116020202637 L 138.4013824462891 16.44116020202637 L 148.3792572021484 16.44116020202637 L 153.2085723876953 16.44116020202637 L 155.6032562255859 16.44116020202637 C 156.5931701660156 16.44116020202637 157.4554901123047 16.80155944824219 158.1662445068359 17.51233863830566 C 158.8770141601562 18.22307968139648 159.2374114990234 19.08539009094238 159.2374114990234 20.0753002166748 L 159.2374114990234 32.44775772094727 C 159.2374114990234 33.29185104370117 159.0853118896484 34.0960578918457 158.7853546142578 34.83806991577148 C 158.4869995117188 35.57614135742188 158.0707244873047 36.23141098022461 157.5481109619141 36.78567123413086 C 157.0197601318359 37.3460807800293 156.3878936767578 37.79199981689453 155.6701507568359 38.11100006103516 C 154.9456024169922 38.43301773071289 154.1442565917969 38.59629821777344 153.2883758544922 38.59629821777344 Z M 154.2085723876953 16.04648971557617 L 153.2085723876953 16.04648971557617 L 148.3792572021484 16.04648971557617 L 147.3792572021484 16.04648971557617 L 147.3792572021484 15.04648971557617 L 147.3792572021484 10.29706001281738 C 147.3792572021484 8.886679649353027 147.0198059082031 7.8467698097229 146.2803649902344 7.117919445037842 C 145.5368804931641 6.385039806365967 144.5262603759766 6.028789520263672 143.1907653808594 6.028789520263672 C 142.0280609130859 6.028789520263672 141.1286315917969 6.378189563751221 140.4410858154297 7.096969604492188 C 139.7414703369141 7.82837963104248 139.4013824462891 8.875139236450195 139.4013824462891 10.29706001281738 L 139.4013824462891 15.04648971557617 L 139.4013824462891 16.04648971557617 L 138.4013824462891 16.04648971557617 L 133.3725433349609 16.04648971557617 L 132.3725433349609 16.04648971557617 L 132.3725433349609 15.04648971557617 L 132.3725433349609 9.179549217224121 C 132.3725433349609 7.763659477233887 132.6582183837891 6.421789646148682 133.2216186523438 5.191219806671143 C 133.7789306640625 3.973979473114014 134.5593566894531 2.888679504394531 135.5411987304688 1.965459585189819 C 136.5208282470703 1.044319629669189 137.6883697509766 0.3118895590305328 139.0113677978516 -0.2114904224872589 C 140.3339538574219 -0.7347104549407959 141.7938232421875 -1.000010371208191 143.3504180908203 -1.000010371208191 C 144.7507476806641 -1.000010371208191 146.1190338134766 -0.7337604165077209 147.417236328125 -0.2086404263973236 C 148.7062377929688 0.3127495646476746 149.8677520751953 1.0408695936203 150.8694915771484 1.955499529838562 C 151.8753967285156 2.873909473419189 152.6887512207031 3.953609466552734 153.2869567871094 5.164609432220459 C 153.8984985351562 6.402599334716797 154.2085723876953 7.753419399261475 154.2085723876953 9.179549217224121 L 154.2085723876953 15.04648971557617 L 154.2085723876953 16.04648971557617 Z"/><path class="i" d="M 143.3504180908203 -1.9073486328125e-05 C 141.9136047363281 -1.9073486328125e-05 140.5898742675781 0.2394485473632812 139.3792266845703 0.7183799743652344 C 138.1685791015625 1.197319030761719 137.1175689697266 1.855850219726562 136.2262268066406 2.693988800048828 C 135.3348693847656 3.532119750976562 134.6364135742188 4.503288269042969 134.130859375 5.607500076293945 C 133.6253051757812 6.711709976196289 133.3725433349609 7.902389526367188 133.3725433349609 9.179550170898438 L 133.3725433349609 15.04648971557617 L 138.4013824462891 15.04648971557617 L 138.4013824462891 10.29706001281738 C 138.4013824462891 8.620790481567383 138.8404235839844 7.323678970336914 139.7184600830078 6.405729293823242 C 140.5965423583984 5.487770080566406 141.7539520263672 5.028789520263672 143.1907653808594 5.028789520263672 C 144.7872314453125 5.028789520263672 146.0511016845703 5.487770080566406 146.9823608398438 6.405729293823242 C 147.9136352539062 7.323678970336914 148.3792572021484 8.620790481567383 148.3792572021484 10.29706001281738 L 148.3792572021484 15.04648971557617 L 153.2085723876953 15.04648971557617 L 153.2085723876953 9.179550170898438 C 153.2085723876953 7.902389526367188 152.9358367919922 6.711709976196289 152.390380859375 5.607500076293945 C 151.8449249267578 4.503288269042969 151.1132049560547 3.532119750976562 150.1952362060547 2.693988800048828 C 149.2772674560547 1.855850219726562 148.2262725830078 1.197319030761719 147.0422515869141 0.7183799743652344 C 145.8582000732422 0.2394485473632812 144.6275939941406 -1.9073486328125e-05 143.3504180908203 -1.9073486328125e-05 M 130.9778594970703 17.44116020202637 C 130.2594299316406 17.44116020202637 129.6474761962891 17.70059013366699 129.1419219970703 18.21942901611328 C 128.6363677978516 18.73827934265137 128.3836059570312 19.35689926147461 128.3836059570312 20.0753002166748 L 128.3836059570312 32.72713088989258 C 128.3836059570312 33.39231872558594 128.4967041015625 34.0175895690918 128.7228546142578 34.60295867919922 C 128.9490203857422 35.18832015991211 129.268310546875 35.70051956176758 129.6807250976562 36.1395378112793 C 130.0931396484375 36.57855987548828 130.592041015625 36.93111038208008 131.1774139404297 37.19718933105469 C 131.7627716064453 37.46326065063477 132.4146575927734 37.59629058837891 133.1330718994141 37.59629058837891 L 153.2883758544922 37.59629058837891 C 154.0067901611328 37.59629058837891 154.6653442382812 37.46326065063477 155.2640075683594 37.19718933105469 C 155.8626861572266 36.93111038208008 156.3815460205078 36.56525802612305 156.8205413818359 36.0996208190918 C 157.2595977783203 35.63399887084961 157.6054840087891 35.08855056762695 157.8582458496094 34.4632682800293 C 158.1110229492188 33.83798980712891 158.2374114990234 33.16616058349609 158.2374114990234 32.44776153564453 L 158.2374114990234 20.0753002166748 C 158.2374114990234 19.35689926147461 157.9779815673828 18.7382698059082 157.4591217041016 18.21942901611328 C 156.9402923583984 17.7005786895752 156.3216552734375 17.44116020202637 155.6032562255859 17.44116020202637 L 130.9778594970703 17.44116020202637 M 143.3504180908203 -2.000019073486328 C 144.8798370361328 -2.000019073486328 146.374267578125 -1.709220886230469 147.7921905517578 -1.135688781738281 C 149.1918029785156 -0.569549560546875 150.4539947509766 0.2220077514648438 151.5437622070312 1.217010498046875 C 152.6418914794922 2.219619750976562 153.530029296875 3.398780822753906 154.1835327148438 4.721729278564453 C 154.8636932373047 6.098640441894531 155.2085723876953 7.598468780517578 155.2085723876953 9.179550170898438 L 155.2085723876953 15.44116020202637 L 155.6032562255859 15.44116020202637 C 156.8502349853516 15.44116020202637 157.9810333251953 15.9128589630127 158.8733673095703 16.80525970458984 C 159.7657165527344 17.69755935668945 160.2373962402344 18.82835006713867 160.2373962402344 20.0753002166748 L 160.2373962402344 32.44776153564453 C 160.2373962402344 33.42092132568359 160.060791015625 34.35123062133789 159.7124633789062 35.21286773681641 C 159.3673248291016 36.06665802001953 158.8839111328125 36.82666778564453 158.2756500244141 37.47171783447266 C 157.6559295654297 38.12905883789062 156.9159088134766 38.65164947509766 156.0762939453125 39.02481079101562 C 155.2230682373047 39.40401840209961 154.2850799560547 39.59629058837891 153.2883758544922 39.59629058837891 L 133.1330718994141 39.59629058837891 C 132.1305389404297 39.59629058837891 131.1941070556641 39.40169906616211 130.3498077392578 39.01792144775391 C 129.5285339355469 38.64461898803711 128.8129730224609 38.13689804077148 128.2230224609375 37.50888824462891 C 127.6352233886719 36.88317108154297 127.1757049560547 36.14797973632812 126.8572540283203 35.32374954223633 C 126.5429534912109 34.51021957397461 126.3836059570312 33.63660049438477 126.3836059570312 32.72713088989258 L 126.3836059570312 20.0753002166748 C 126.3836059570312 18.83827018737793 126.8420867919922 17.7138786315918 127.7094879150391 16.82367897033691 C 128.5907745361328 15.91922950744629 129.7209625244141 15.44116020202637 130.9778594970703 15.44116020202637 L 131.3725433349609 15.44116020202637 L 131.3725433349609 9.179550170898438 C 131.3725433349609 7.618980407714844 131.6887512207031 6.137060165405273 132.3123931884766 4.774929046630859 C 132.9237976074219 3.439540863037109 133.7796478271484 2.249191284179688 134.8561859130859 1.2369384765625 C 135.92822265625 0.2288894653320312 137.2024688720703 -0.5713005065917969 138.6434936523438 -1.141380310058594 C 140.083740234375 -1.711132049560547 141.6673736572266 -2.000019073486328 143.3504180908203 -2.000019073486328 Z M 146.3792572021484 15.44116020202637 L 146.3792572021484 10.29706001281738 C 146.3792572021484 9.168249130249023 146.1172790527344 8.361299514770508 145.578369140625 7.830099105834961 C 145.0313568115234 7.290889739990234 144.2503814697266 7.028789520263672 143.1907653808594 7.028789520263672 C 142.0249633789062 7.028789520263672 141.4755554199219 7.462200164794922 141.1637115478516 7.788209915161133 C 140.6507568359375 8.324480056762695 140.4013824462891 9.145149230957031 140.4013824462891 10.29706001281738 L 140.4013824462891 15.44116020202637 L 146.3792572021484 15.44116020202637 Z"/></g><text class="f" transform="translate(5.382 31.737)"><tspan x="0" y="0">zk</tspan></text></g></g></g></svg>