<svg xmlns="http://www.w3.org/2000/svg" width="110" height="70.724" viewBox="0 0 110 70.724"><defs><style>.a{fill:rgba(255,255,255,0);stroke:rgba(112,112,112,0);}.b{fill:#7e84a3;}.c,.e{fill:#1e5eff;}.d,.h{fill:#fff;}.f{fill:#231815;}.g{fill:#535c69;}.h{font-size:14px;font-family:Poppins-ExtraBold, Poppins;font-weight:800;}.i,.k{stroke:none;}.j{fill:none;}.k{fill:#fff;}</style></defs><g transform="translate(-320 -224)"><g class="a" transform="translate(320 224)"><rect class="i" width="110" height="70"/><rect class="j" x="0.5" y="0.5" width="109" height="69"/></g><g transform="translate(329.41 225.553)"><rect class="b" width="74.404" height="49.68" rx="4" transform="translate(8.104 2)"/><g transform="translate(0 10.054)"><rect class="c" width="74.404" height="49.68" rx="4"/><rect width="28.351" height="0.81" rx="0.192" transform="translate(20.836 44.864)"/><rect width="44.774" height="32.093" rx="1.225" transform="translate(4.773 5.02)"/><g transform="translate(8.352 8.02)"><g transform="translate(0)"><path class="d" d="M224.524,152.617s-.708-.419-1.031.16a11.616,11.616,0,0,0-.613,7.705,13,13,0,0,0,1.644,3.547,1.177,1.177,0,0,1-.129,1.579,11.5,11.5,0,0,1-3.61,3.387,1.947,1.947,0,0,0,1.45,0s.27.061.078.329a6.129,6.129,0,0,1-.953.651,2.119,2.119,0,0,1,1.6.677,13.92,13.92,0,0,0,4.755,5.889,8.451,8.451,0,0,0,1.22.674,41.923,41.923,0,0,0-3.341,4.348h15.421l3.981-25.179-2.46-.445c-.6-.11-1.208-.19-1.817-.244l-.588-.053a16.072,16.072,0,0,0-3.263.025c-.71.08-1.418.2-2.118.346l-1.509.32a7.711,7.711,0,0,1-5.258-1.321Z" transform="translate(-220.785 -152.47)"/><path class="d" d="M244.864,152.617s.71-.419,1.033.16a11.623,11.623,0,0,1,.611,7.705,12.932,12.932,0,0,1-1.644,3.547,1.177,1.177,0,0,0,.129,1.579A11.488,11.488,0,0,0,248.6,169a1.952,1.952,0,0,1-1.452,0s-.27.061-.076.329a6.129,6.129,0,0,0,.953.651,2.119,2.119,0,0,0-1.6.677,13.92,13.92,0,0,1-4.755,5.889,8.579,8.579,0,0,1-1.22.674,41.929,41.929,0,0,1,3.341,4.348H228.378l.249-21.453a4.207,4.207,0,0,1,4.717-4.093l3.484.394a5.886,5.886,0,0,0,4.013-1.007Z" transform="translate(-212.375 -152.47)"/></g><g transform="translate(2.129 1.125)"><path d="M229.786,157.207s-2.266,1.507-2.563,2.546c0,0-4.365-2.556-5.3-6.576C221.92,153.177,225.929,158.954,229.786,157.207Z" transform="translate(-221.92 -152.812)"/><path d="M232.707,157.373s2.329,1.408,2.67,2.432c0,0,4.249-2.744,5.012-6.8C240.389,153,236.636,158.952,232.707,157.373Z" transform="translate(-209.972 -153.004)"/><path d="M228.483,154.563a8.917,8.917,0,0,1,.978,3.414,18.81,18.81,0,0,0-1.115-3.159S228.2,154.54,228.483,154.563Z" transform="translate(-214.844 -151.279)"/><path d="M229.236,154.449s.15-.245.314-.008l-.312,4.54Z" transform="translate(-213.817 -151.526)"/><path d="M230.8,154.615s.084-.023.059.188a7.982,7.982,0,0,0-1.252,3.459S230.052,154.708,230.8,154.615Z" transform="translate(-213.404 -151.22)"/><path d="M226.5,156.448a6.774,6.774,0,0,1,2.875,1.284s.177.358-.19.348a6.774,6.774,0,0,0-2.767-1.627" transform="translate(-216.935 -149.189)"/><path d="M233.75,156.777a6.764,6.764,0,0,0-3.008.932s-.219.333.148.367a6.757,6.757,0,0,1,2.942-1.284" transform="translate(-212.221 -148.825)"/><path d="M225.828,163.1a5.684,5.684,0,0,1-1.579-1.943,1.774,1.774,0,0,1,.183-1.754,3.2,3.2,0,0,1,.877-.8,5.137,5.137,0,0,1,5.465.091,5.439,5.439,0,0,1,2.1,2.584s.5,1.376-2.089,2.152a5.508,5.508,0,0,0,1.423-1.071,1.35,1.35,0,0,0,.116-1.534l-.027-.04a2.421,2.421,0,0,0-.75-.738,3.745,3.745,0,0,1-1.3,2.626s-1.84,1.066-2.854-.512a4.508,4.508,0,0,1-.476-3.49,6.146,6.146,0,0,0-1.623.932,1.671,1.671,0,0,0-.6,1.45,1.543,1.543,0,0,0,.154.527A7.459,7.459,0,0,0,225.828,163.1Z" transform="translate(-219.507 -147.623)"/><path d="M237.6,162.728a5.715,5.715,0,0,0,1.475-2.023,1.767,1.767,0,0,0-.276-1.741,3.209,3.209,0,0,0-.915-.75,5.137,5.137,0,0,0-5.452.373,5.425,5.425,0,0,0-1.966,2.691s-.428,1.4,2.2,2.04a5.578,5.578,0,0,1-1.475-.995,1.35,1.35,0,0,1-.2-1.526l.025-.044a2.446,2.446,0,0,1,.712-.774,3.735,3.735,0,0,0,1.439,2.554s1.891.969,2.822-.66a4.5,4.5,0,0,0,.293-3.511,6.152,6.152,0,0,1,1.671.847,1.673,1.673,0,0,1,.674,1.416,1.527,1.527,0,0,1-.129.533A7.534,7.534,0,0,1,237.6,162.728Z" transform="translate(-212.481 -147.911)"/><g transform="translate(9.48 16.02)"><path d="M229.363,161.14s.615-.856,1.195-.4a.773.773,0,0,1-.175,1.022,6.156,6.156,0,0,1-.765.736s4.165,3,6-.375c0,0,.15-.074.072.12a2.733,2.733,0,0,1-2.915,1.686,3.463,3.463,0,0,1-3.151,2.738Z" transform="translate(-223.156 -160.605)"/><path d="M232.637,161.086s-.7-.79-1.231-.28a.781.781,0,0,0,.278,1,6.27,6.27,0,0,0,.837.655s-3.84,3.416-6.011.234c0,0-.158-.057-.061.129a2.738,2.738,0,0,0,3.073,1.387,3.462,3.462,0,0,0,3.41,2.411Z" transform="translate(-226.418 -160.573)"/></g></g></g><rect width="15.515" height="0.81" rx="0.192" transform="translate(33.672 40.96)"/></g><g transform="translate(55.629 23.502)"><g class="e" transform="translate(-243.342 -153.623)"><path class="i" d="M 262.1170654296875 198.1371612548828 L 261.6170654296875 197.8484802246094 L 242.8415222167969 187.0085296630859 L 242.3415222167969 186.7198486328125 L 242.3415222167969 186.1425018310547 L 242.3415222167969 164.4625854492188 L 242.3415222167969 163.8852386474609 L 242.8415222167969 163.5965576171875 L 261.6170654296875 152.756591796875 L 262.1170654296875 152.4679107666016 L 262.6170654296875 152.756591796875 L 281.3926391601562 163.5965576171875 L 281.8926391601562 163.8852386474609 L 281.8926391601562 164.4625854492188 L 281.8926391601562 186.1425018310547 L 281.8926391601562 186.7198486328125 L 281.3926391601562 187.0085296630859 L 262.6170654296875 197.8484802246094 L 262.1170654296875 198.1371612548828 Z"/><path class="k" d="M 262.1170654296875 196.9824523925781 L 280.8926391601562 186.1425018310547 L 280.8926391601562 164.4625854492188 L 262.1170654296875 153.6226196289062 L 243.3415222167969 164.4625854492188 L 243.3415222167969 186.1425018310547 L 262.1170654296875 196.9824523925781 M 262.1170654296875 199.2918395996094 L 241.3415222167969 187.2972106933594 L 241.3415222167969 163.3078765869141 L 262.1170654296875 151.3132171630859 L 282.8926391601562 163.3078765869141 L 282.8926391601562 187.2972106933594 L 262.1170654296875 199.2918395996094 Z"/></g><path class="f" d="M278.571,184.286l-17.249,9.959-17.249-9.959V164.369l17.249-9.959,17.249,9.959Z" transform="translate(-242.532 -152.751)"/><path class="g" d="M276.892,183.037l-16.153,9.326-16.153-9.326V164.385l16.153-9.326,16.153,9.326Z" transform="translate(-241.963 -152.031)"/><path class="b" d="M275.728,182.112l-15.385,8.883-15.386-8.883V164.346l15.386-8.883,15.385,8.883Z" transform="translate(-241.552 -151.584)"/><text class="h" transform="translate(5.069 26.538)"><tspan x="0" y="0">NFT</tspan></text></g></g></g></svg>