<svg xmlns="http://www.w3.org/2000/svg" width="142" height="94" viewBox="0 0 142 94"><defs><style>.a,.g{fill:#fff;}.a{opacity:0;}.b{fill:#d7dbec;}.c{fill:#a1a7c4;}.d{fill:#131523;}.e{fill:#fc3c44;}.f,.i{fill:none;}.f{stroke:rgba(255,255,255,0);stroke-miterlimit:10;}.f,.g{stroke-width:0.4px;}.g{stroke:#fff;}.h{stroke:none;}</style></defs><g transform="translate(16152 5101.5)"><rect class="a" width="142" height="94" transform="translate(-16152 -5101.5)"/><g transform="translate(-16128.288 -5086.257)"><rect class="b" width="95" height="65" transform="translate(0.288 -0.243)"/><rect class="c" width="25" height="18" transform="translate(10.288 13.757)"/><rect class="d" width="95" height="7" transform="translate(0.288 -0.243)"/><rect class="c" width="42" height="4" transform="translate(42.288 16.757)"/><rect class="c" width="19" height="3" transform="translate(42.288 23.757)"/><rect class="c" width="25" height="18" transform="translate(10.288 37.757)"/><rect class="c" width="42" height="3" transform="translate(42.288 40.757)"/><rect class="c" width="19" height="3" transform="translate(42.288 47.757)"/></g><g transform="translate(-16053.766 -5055.771)"><ellipse class="e" cx="20.5" cy="20" rx="20.5" ry="20" transform="translate(-0.234 0.271)"/><g transform="translate(-658.997 -228.492)"><g class="f" transform="translate(663.763 233.763)"><rect class="h" width="30" height="30" rx="8"/><rect class="i" x="0.2" y="0.2" width="29.6" height="29.6" rx="7.8"/></g><g transform="translate(668.263 237.763)"><path class="g" d="M-11210.581-3650a.559.559,0,0,1-.559-.558v-12.093h-1.3a.559.559,0,0,1-.559-.558.559.559,0,0,1,.559-.558h4.135l1.064-1.942a.557.557,0,0,1,.489-.29h3.53a.559.559,0,0,1,.492.294l1.041,1.938h4.131a.558.558,0,0,1,.559.558.558.558,0,0,1-.559.558h-1.3v12.093a.559.559,0,0,1-.559.558Zm.558-1.116h10.047v-11.535h-10.047Zm7.067-12.652-.6-1.116h-2.865l-.611,1.116Zm-1.113,9.116v-4.838a.558.558,0,0,1,.559-.558.558.558,0,0,1,.558.558v4.838a.558.558,0,0,1-.558.558A.558.558,0,0,1-11204.069-3654.65Zm-2.977,0v-4.838a.558.558,0,0,1,.558-.558.559.559,0,0,1,.559.558v4.838a.559.559,0,0,1-.559.558A.558.558,0,0,1-11207.046-3654.65Z" transform="translate(11215.5 3668.5)"/></g></g></g></g></svg>