<svg xmlns="http://www.w3.org/2000/svg" width="90" height="66" viewBox="0 0 90 66"><defs><style>.a{fill:#fc3c44;}.b{fill:none;}</style></defs><g transform="translate(-675 -324)"><path d="M97.792,170.667H85.979a2.633,2.633,0,0,0-2.625,2.625v3.938H82.042a2.633,2.633,0,0,0-2.625,2.625H63.667a2.633,2.633,0,0,0-2.625-2.625H59.729v-3.937a2.633,2.633,0,0,0-2.625-2.625H45.292a2.633,2.633,0,0,0-2.625,2.625v36.75a2.633,2.633,0,0,0,2.625,2.625H57.1a2.633,2.633,0,0,0,2.625-2.625V206.1h1.313a2.633,2.633,0,0,0,2.625-2.625h15.75a2.633,2.633,0,0,0,2.625,2.625h1.312v3.938a2.633,2.633,0,0,0,2.625,2.625H97.792a2.633,2.633,0,0,0,2.625-2.625v-36.75A2.633,2.633,0,0,0,97.792,170.667Zm-45.281,31.5H49.885a1.969,1.969,0,0,1,0-3.938H52.51a1.969,1.969,0,0,1,0,3.938Zm0-7.875H49.885a1.969,1.969,0,0,1,0-3.937H52.51a1.969,1.969,0,1,1,0,3.938Zm0-7.875H49.885a1.969,1.969,0,0,1,0-3.937H52.51a1.969,1.969,0,1,1,0,3.938Zm29.531,10.5a2.633,2.633,0,0,0-2.625,2.625H63.667a2.633,2.633,0,0,0-2.625-2.625H59.729v-10.5h1.313a2.633,2.633,0,0,0,2.625-2.625h15.75a2.633,2.633,0,0,0,2.625,2.625h1.312v10.5Zm11.156,5.25H90.573a1.969,1.969,0,1,1,0-3.938H93.2a1.969,1.969,0,0,1,0,3.938Zm0-7.875H90.573a1.969,1.969,0,1,1,0-3.937H93.2a1.969,1.969,0,0,1,0,3.938Zm0-7.875H90.573a1.969,1.969,0,1,1,0-3.937H93.2a1.969,1.969,0,0,1,0,3.938Z" transform="translate(648.333 165.334)"/><path class="a" d="M484.023,75.093A10.707,10.707,0,1,1,473.316,85.8,10.707,10.707,0,0,1,484.023,75.093Zm0,17.566a.669.669,0,1,0-.669-.669A.669.669,0,0,0,484.023,92.66Zm-.669-3.179a.669.669,0,0,0,1.338,0V79.61a.669.669,0,0,0-1.338,0Z" transform="translate(265.978 250.199)"/><rect class="b" width="90" height="66" transform="translate(675 324)"/></g></svg>