<svg xmlns="http://www.w3.org/2000/svg" width="30" height="29.999" viewBox="0 0 30 29.999"><path d="M8658-4455a14.905,14.905,0,0,1-10.607-4.393A14.9,14.9,0,0,1,8643-4470a14.9,14.9,0,0,1,4.394-10.606A14.905,14.905,0,0,1,8658-4485a14.9,14.9,0,0,1,10.605,4.393A14.9,14.9,0,0,1,8673-4470a14.9,14.9,0,0,1-4.394,10.606A14.9,14.9,0,0,1,8658-4455Zm0-26.224a11.068,11.068,0,0,0-7.938,3.339,11.419,11.419,0,0,0-3.288,8.063,11.365,11.365,0,0,0,2.421,7.065,11.287,11.287,0,0,0,6.085,3.985,1.652,1.652,0,0,1-.087-.555v-1.948h-1.411a1.945,1.945,0,0,1-1.782-.958,4.872,4.872,0,0,1-.283-.71v-.005h0a3.1,3.1,0,0,0-1.056-1.686c-.105-.083-.147-.178-.117-.265a.31.31,0,0,1,.308-.167l.056,0a2.931,2.931,0,0,1,1.5,1.162,1.434,1.434,0,0,0,1.493.729,10.561,10.561,0,0,0,1.58-.115,3.571,3.571,0,0,1,1.486-1.863,7.1,7.1,0,0,1-4.163-1.606,4.22,4.22,0,0,1-1.358-3.237,4.68,4.68,0,0,1,1.249-3.074c-.075-.262-.71-2.585.1-3.408a3.865,3.865,0,0,1,2.942,1.408,8.266,8.266,0,0,1,2.726-.457,8.241,8.241,0,0,1,2.733.459,3.86,3.86,0,0,1,2.945-1.41c.667.678.374,2.465.1,3.415a4.683,4.683,0,0,1,1.242,3.067,4.221,4.221,0,0,1-1.357,3.234,7.089,7.089,0,0,1-4.155,1.606,4.024,4.024,0,0,1,1.775,3.228v2.6a.953.953,0,0,1-.02.175c0,.027-.009.053-.013.082a11.23,11.23,0,0,0,5.4-4.095,11.42,11.42,0,0,0,2.117-6.658,11.421,11.421,0,0,0-3.288-8.062A11.066,11.066,0,0,0,8658-4481.225Z" transform="translate(-8643 4484.999)"/></svg>