<svg xmlns="http://www.w3.org/2000/svg" xmlns:xlink="http://www.w3.org/1999/xlink" width="30" height="30" viewBox="0 0 30 30"><defs><style>.a{clip-path:url(#a);}</style><clipPath id="a"><rect width="30" height="30" rx="15" transform="translate(1141 4290)"/></clipPath></defs><g class="a" transform="translate(-1141 -4290)"><path d="M9.039,4A5.039,5.039,0,0,0,4,9.039V29.2a5.039,5.039,0,0,0,5.039,5.039H29.2A5.039,5.039,0,0,0,34.234,29.2V9.039A5.039,5.039,0,0,0,29.2,4Zm1.5,6.479h5.714l4.058,5.766,4.924-5.766h1.8L21.125,17.4l7.289,10.357H22.7l-4.709-6.69-5.714,6.69h-1.8l6.7-7.844Zm2.756,1.44,10.155,14.4h2.206L15.5,11.919Z" transform="translate(1136.883 4285.883)"/></g></svg>