<svg xmlns="http://www.w3.org/2000/svg" width="250.342" height="23.24" viewBox="0 0 250.342 23.24"><defs><style>.a{stroke:rgba(0,0,0,0);stroke-miterlimit:10;}</style></defs><path class="a" d="M198.186,13.706c0-5.262,3.775-8.532,8.622-8.532,4.877,0,8.622,3.27,8.622,8.532s-3.8,8.534-8.682,8.534S198.186,18.97,198.186,13.706Zm5.173,0c0,2.8,1.547,4.133,3.39,4.133,1.814,0,3.509-1.338,3.509-4.133,0-2.825-1.665-4.132-3.449-4.132C204.965,9.574,203.359,10.882,203.359,13.706Zm-63.5,0c0-5.262,3.449-8.532,8.385-8.532,4.846,0,8.266,3.21,8.266,8.264a12.88,12.88,0,0,1-.09,1.486H144.913c.178,2.172,1.516,3.182,3.151,3.182a2.7,2.7,0,0,0,2.646-1.6h5.411a7.753,7.753,0,0,1-7.878,5.738C143.366,22.24,139.857,18.97,139.857,13.706Zm5.085-1.6H151.3a2.868,2.868,0,0,0-3.121-2.854A3.144,3.144,0,0,0,144.943,12.1ZM67.949,13.677c0-5.232,3.242-8.5,7.314-8.5a5.776,5.776,0,0,1,5.115,2.586V5.411h5.084V22H80.378V19.654a5.868,5.868,0,0,1-5.143,2.586C71.191,22.24,67.949,18.909,67.949,13.677Zm5.174,0c0,2.646,1.725,4.132,3.627,4.132,1.932,0,3.627-1.457,3.627-4.1s-1.7-4.1-3.627-4.1C74.848,9.6,73.123,11.031,73.123,13.677Zm-24.843.03c0-5.262,3.775-8.532,8.622-8.532,4.877,0,8.622,3.27,8.622,8.532s-3.806,8.534-8.682,8.534S48.28,18.97,48.28,13.706Zm5.173,0c0,2.8,1.547,4.133,3.39,4.133,1.814,0,3.509-1.338,3.509-4.133,0-2.825-1.665-4.132-3.449-4.132C55.059,9.574,53.453,10.882,53.453,13.706Zm-37.915-2.17c0-6.243,4.341-10.643,10.5-10.643,4.966,0,8.711,2.794,9.9,7.314h-5.59a4.6,4.6,0,0,0-4.37-2.677c-3.122,0-5.262,2.32-5.262,6.006s2.14,6.006,5.262,6.006a4.6,4.6,0,0,0,4.37-2.677h5.59c-1.19,4.52-4.936,7.285-9.9,7.285C19.879,22.151,15.538,17.779,15.538,11.536ZM242.463,22l-5.054-6.957V22h-5.084V0h5.084V12.161l5.025-6.75h6.274l-6.9,8.325L248.767,22Zm-23.6,0V5.411h5.084V8.177a6.183,6.183,0,0,1,5.2-2.943v5.382h-1.4c-2.407,0-3.8.832-3.8,3.687V22Zm-32.443,0-2.617-10.763L181.1,22h-5.589l-4.52-16.59h5.084l2.349,11.863,2.8-11.863H186.6l2.823,11.8,2.32-11.8h4.787L192.044,22Zm-19.849,0c-3.449,0-5.858-1.457-5.858-5.768v-6.6H158.7V5.411h2.021V1.368H165.8V5.411h3.33V9.634H165.8v6.659c0,.982.416,1.4,1.546,1.4h1.814V22Zm-35.21,0-8.5-12.874V22h-5.084V1.13h5.084l8.5,12.934V1.13h5.084V22Zm-31.348,0-5.054-6.957V22H89.88V0h5.084V12.161l5.025-6.75h6.274l-6.9,8.325L106.322,22ZM39.789,22V0h5.084V22ZM0,22V17.958L6.9,9.6H.059V5.411H12.725V9.455L5.679,17.809h7.2V22Z" transform="translate(0.5 0.5)"/></svg>