<svg xmlns="http://www.w3.org/2000/svg" width="30" height="29.999" viewBox="0 0 30 29.999"><path d="M8658-4455a14.905,14.905,0,0,1-10.607-4.393A14.9,14.9,0,0,1,8643-4470a14.9,14.9,0,0,1,4.394-10.606A14.905,14.905,0,0,1,8658-4485a14.9,14.9,0,0,1,10.605,4.393A14.9,14.9,0,0,1,8673-4470a14.9,14.9,0,0,1-4.394,10.606A14.9,14.9,0,0,1,8658-4455Zm6.037-11.435a.423.423,0,0,1,.314.142.418.418,0,0,1,.1.3.411.411,0,0,1-.14.282,8.122,8.122,0,0,1-3.167,1.487l.76,1.049a.416.416,0,0,0,.337.17h.014c.754-.024,4.062-.582,5.271-2.71a.4.4,0,0,0,.057-.207c0-4.1-1.771-8.865-2.657-9.684a9.188,9.188,0,0,0-4.4-1.569h-.035a.415.415,0,0,0-.376.245,2.718,2.718,0,0,0-.126.349,10.085,10.085,0,0,1,3.663,1.314.407.407,0,0,1,.187.258.408.408,0,0,1-.05.314.417.417,0,0,1-.354.2.4.4,0,0,1-.22-.065,10.783,10.783,0,0,0-5.22-1.365,10.782,10.782,0,0,0-5.222,1.365.417.417,0,0,1-.221.064.409.409,0,0,1-.352-.2.413.413,0,0,1-.053-.316.415.415,0,0,1,.186-.259,10.113,10.113,0,0,1,3.665-1.314,2.9,2.9,0,0,0-.126-.349.414.414,0,0,0-.375-.246l-.039,0a9.21,9.21,0,0,0-4.418,1.587c-.879.815-2.634,5.567-2.634,9.667a.422.422,0,0,0,.055.207c1.212,2.129,4.518,2.686,5.271,2.71h.013a.418.418,0,0,0,.338-.17l.762-1.049a8.11,8.11,0,0,1-3.167-1.487.407.407,0,0,1-.14-.284.417.417,0,0,1,.1-.3.414.414,0,0,1,.313-.141.413.413,0,0,1,.275.1,9.175,9.175,0,0,0,5.764,1.665,10.9,10.9,0,0,0,4.3-.827,6.264,6.264,0,0,0,1.457-.837A.427.427,0,0,1,8664.038-4466.435Zm-3.329-1.151a1.575,1.575,0,0,1-1.459-1.667,1.575,1.575,0,0,1,1.459-1.667,1.575,1.575,0,0,1,1.458,1.667A1.575,1.575,0,0,1,8660.709-4467.586Zm-5.418,0a1.576,1.576,0,0,1-1.46-1.667,1.576,1.576,0,0,1,1.46-1.667,1.575,1.575,0,0,1,1.458,1.667A1.575,1.575,0,0,1,8655.291-4467.586Z" transform="translate(-8643 4484.999)"/></svg>