<svg xmlns="http://www.w3.org/2000/svg" xmlns:xlink="http://www.w3.org/1999/xlink" width="119" height="118" viewBox="0 0 119 118"><defs><style>.a{fill:rgba(255,255,255,0);}.b{fill:#0145ff;}.c{fill:url(#a);}.d{fill:#0c73fa;}.e{fill:url(#b);}.f{fill:#67ccec;}.g{fill:url(#c);}.h{fill:#51f0ca;}</style><linearGradient id="a" x1="0.5" x2="0.5" y2="1" gradientUnits="objectBoundingBox"><stop offset="0" stop-color="#1e22eb" stop-opacity="0"/><stop offset="1" stop-color="#0f1176"/></linearGradient><linearGradient id="b" x1="0.803" y1="-0.147" x2="0.836" y2="0.937" gradientUnits="objectBoundingBox"><stop offset="0" stop-color="#0c73fa" stop-opacity="0"/><stop offset="1" stop-color="#063a7d"/></linearGradient><linearGradient id="c" x1="0.522" y1="0.062" x2="0.5" y2="1" gradientUnits="objectBoundingBox"><stop offset="0" stop-color="#67ccec" stop-opacity="0"/><stop offset="1" stop-color="#346676"/></linearGradient></defs><g transform="translate(0.352 -0.458)"><rect class="a" width="119" height="118" transform="translate(-0.352 0.458)"/><g transform="translate(3.817 6.43)"><path class="b" d="M24.541,0H79.985c13.554,0,24.541,11.853,24.541,26.474V53.259H0V26.474C0,11.853,10.988,0,24.541,0Z" transform="translate(4.043 0)"/><path class="c" d="M24.541,0H79.985c13.554,0,24.541,11.853,24.541,26.474V53.259H0V26.474C0,11.853,10.988,0,24.541,0Z" transform="translate(4.043 0)"/><path class="d" d="M24.662,0,77.536.44C91.27.554,102.5,12.611,102.61,27.371l.214,27.7L.215,54.221,0,26.52C-.113,11.76,10.928-.113,24.662,0Z" transform="matrix(0.994, 0.109, -0.109, 0.994, 10.862, 9.527)"/><path class="e" d="M24.662,0,77.536.44C91.27.554,102.5,12.611,102.61,27.371l.214,27.7L.215,54.221,0,26.52C-.113,11.76,10.928-.113,24.662,0Z" transform="matrix(0.994, 0.109, -0.109, 0.994, 10.862, 9.528)"/><path class="f" d="M23.13,0,77.269.35c12.857.083,23.347,9.982,23.43,22.109l.141,20.681L.142,42.491,0,21.81C-.082,9.682,10.273-.082,23.13,0Z" transform="translate(0 34.038) rotate(-6.403)"/><path class="g" d="M23.13,0,77.269.35c12.857.083,23.347,9.982,23.43,22.109l.141,20.681L.142,42.491,0,21.81C-.082,9.682,10.273-.082,23.13,0Z" transform="translate(0 34.037) rotate(-6.403)"/><path class="h" d="M24.089,0H80.454c13.3,0,24.089,11.634,24.089,25.985V38.5c0,14.351-10.785,25.985-24.089,25.985H24.089C10.785,64.481,0,52.847,0,38.5V25.985C0,11.634,10.785,0,24.089,0Z" transform="translate(4.027 40.605)"/></g></g></svg>