<svg xmlns="http://www.w3.org/2000/svg" xmlns:xlink="http://www.w3.org/1999/xlink" width="31.13" height="33.716" viewBox="0 0 31.13 33.716"><defs><style>.a{fill:#79fed1;}.b{clip-path:url(#a);}.c{clip-path:url(#b);}</style><clipPath id="a"><path class="a" d="M3464.158,1743.329a22.381,22.381,0,0,0-6.173,2.469,22.858,22.858,0,0,0-7.672,7.379,32.182,32.182,0,0,0-7.7.5c-.151.026-.292.047-.454.063.124-.394.266-.785.42-1.17A16.45,16.45,0,0,1,3464.158,1743.329Zm1.673.814a16.823,16.823,0,0,1,5.978,5.664l.275.448-6.632,3.9c-.033-.054-.066-.1-.1-.161a8.783,8.783,0,0,0-12.292-2.654A21.2,21.2,0,0,1,3465.831,1744.143Zm-12.664,10.122a6.736,6.736,0,0,1-2.309,4.67,10.609,10.609,0,0,0-6.878,0,4.966,4.966,0,0,0,.884-3.155A10.327,10.327,0,0,0,3453.167,1754.265Zm-1.016-.021a9.2,9.2,0,0,1-1.311.624,10.424,10.424,0,0,1-6.517.294,4.905,4.905,0,0,1-1.094,3.942,9.29,9.29,0,0,0-2.276-4.677,15.835,15.835,0,0,0,1.732-.183C3449.659,1753.167,3451.628,1753.888,3452.152,1754.245Zm17.934,10.41h-.144a8.756,8.756,0,0,0-1.156.2,7.349,7.349,0,0,0-2.538,1.156c-.136.1-.273.2-.4.314l4.988,1.546h0a2.15,2.15,0,0,0,.689-1.642,2.063,2.063,0,0,0-.846-1.329l-.189-.117a.906.906,0,0,0-.549-.128Zm-.31-.516a1.467,1.467,0,0,1,.963.184l.242.153a2.567,2.567,0,0,1,1.09,1.714,2.6,2.6,0,0,1-.962,2.159.265.265,0,0,1-.193.08.317.317,0,0,1-.083,0l-5.344-1.646-.049-.021a.913.913,0,0,0-.182.559,2.487,2.487,0,0,0,.144.621,2.375,2.375,0,0,1,.058,1.662,4.285,4.285,0,0,1-.408.872,1.125,1.125,0,0,0-.066,1.4c.108.209.223.393.322.554a2.7,2.7,0,0,1,.565,1.819.276.276,0,0,1-.276.249h-.021a.265.265,0,0,1-.182-.09,2.92,2.92,0,0,0-.558-1.866c-.095-.172-.21-.37-.322-.59a1.308,1.308,0,0,1,.066-1.517,4.668,4.668,0,0,0,.4-.936,2.651,2.651,0,0,0-.058-1.742,2.584,2.584,0,0,1-.141-.678.92.92,0,0,1,.066-.389,3.285,3.285,0,0,1,1.069-1.1,7.848,7.848,0,0,1,2.372-1.148c.285-.073.554-.136.806-.188l.28-.049.2-.036Zm-28.177-7.964c.9,1.049,1.3,3.694,1.345,3.672a9.346,9.346,0,0,1,5.994-.911,8.576,8.576,0,0,1,3.744,1.819,8.774,8.774,0,0,0,2.479,1.459,10.481,10.481,0,0,0,4.5.1c4.194-.665,6.958-.464,9.285.608-.3.054-.624.127-.97.211a15.609,15.609,0,0,0-8.171-.279,13.728,13.728,0,0,1-3.729.122,6.685,6.685,0,0,1-2.711-1.03c-.345-.242-.724-.53-1.119-.815a11.066,11.066,0,0,0-3.008-1.555,8.928,8.928,0,0,0-3.094-.177,8.663,8.663,0,0,0-2.557.807,3.549,3.549,0,0,0-1.432,1.419c.061.354.118.642.167.862.021-.03.524-1.568,1.7-1.648s1.586,1.259,1.752,2a9.645,9.645,0,0,1,.047,2.893c-.047.53-.092,1.076-.092,1.612a9.5,9.5,0,0,0,.3,2.485c.338.381.7.741,1.071,1.089a6.554,6.554,0,0,1-.82-3.579c0-.508.045-1.043.087-1.564a10.075,10.075,0,0,0-.059-3.067,3.1,3.1,0,0,0-1.335-2.18,6.372,6.372,0,0,1,3.588.853c1.091.717,1.541,1.721,2.681,2.778a9.63,9.63,0,0,0,4.544,2.3,7.4,7.4,0,0,0,3.39-.472c1.156-.372,3.248-1.285,4.45-1.655a13.07,13.07,0,0,1,2.662-.5c-1.1.5-2.593,1.712-2.557,2.627.038.941.5,1.542.25,2.453s-.76,1.358-.76,2.024c-4.138,1.106-7.555.869-10.137-.717a9.02,9.02,0,0,1-3.815-4.8l-.12-.386h-.589a9.724,9.724,0,0,0,4.233,5.671,10.691,10.691,0,0,0,5.711,1.45,18.845,18.845,0,0,0,4.816-.691c.083.462.188.475.529,1.132a2.788,2.788,0,0,1,.471,1.892,16.229,16.229,0,0,1-9.1,1.089A16.833,16.833,0,0,1,3441.6,1756.174Z" transform="translate(-3440.954 -1742.076)"/></clipPath><clipPath id="b"><rect class="a" width="261.864" height="262.916"/></clipPath></defs><g transform="translate(0)"><g class="b"><g transform="translate(-11.239 -114.604)"><g class="c" transform="translate(0 0)"><rect class="a" width="33.797" height="36.309" transform="translate(9.941 113.308)"/></g></g></g></g></svg>