<svg xmlns="http://www.w3.org/2000/svg" width="96.06" height="14.96" viewBox="0 0 96.06 14.96"><path d="M4.44-2.82H9.28V0H.62V-2.72L5.26-8.34H.66v-2.82H9.18v2.72ZM17.98,0l-3.4-4.68V0H11.16V-14.8h3.42v8.18l3.38-4.54h4.22l-4.64,5.6L22.22,0Zm8.96-14.04V0H23.52V-14.04Zm7.74,0a8.166,8.166,0,0,1,3.88.88,6.287,6.287,0,0,1,2.57,2.47,7.257,7.257,0,0,1,.91,3.67,7.272,7.272,0,0,1-.91,3.66A6.254,6.254,0,0,1,38.55-.88,8.182,8.182,0,0,1,34.68,0H29.42V-14.04ZM34.46-2.96a4.128,4.128,0,0,0,3.02-1.06,4.013,4.013,0,0,0,1.08-3,4.083,4.083,0,0,0-1.08-3.02,4.083,4.083,0,0,0-3.02-1.08H32.84v8.16ZM47.62-7.04a7.547,7.547,0,0,1,.9-3.71,6.432,6.432,0,0,1,2.51-2.54,7.287,7.287,0,0,1,3.65-.91,6.984,6.984,0,0,1,4.28,1.32,6.339,6.339,0,0,1,2.38,3.6H57.58a3.037,3.037,0,0,0-1.19-1.34,3.346,3.346,0,0,0-1.75-.46,3.266,3.266,0,0,0-2.56,1.1,4.257,4.257,0,0,0-.98,2.94,4.257,4.257,0,0,0,.98,2.94A3.266,3.266,0,0,0,54.64-3a3.346,3.346,0,0,0,1.75-.46A3.037,3.037,0,0,0,57.58-4.8h3.76a6.293,6.293,0,0,1-2.38,3.59A7.021,7.021,0,0,1,54.68.1a7.287,7.287,0,0,1-3.65-.91,6.45,6.45,0,0,1-2.51-2.53A7.49,7.49,0,0,1,47.62-7.04ZM62.76-5.6a6.67,6.67,0,0,1,.65-3.02,4.848,4.848,0,0,1,1.77-2,4.621,4.621,0,0,1,2.5-.7,4.3,4.3,0,0,1,2.07.48,3.536,3.536,0,0,1,1.37,1.26v-1.58h3.42V0H71.12V-1.58A3.693,3.693,0,0,1,69.73-.32a4.3,4.3,0,0,1-2.07.48,4.538,4.538,0,0,1-2.48-.71,4.906,4.906,0,0,1-1.77-2.02A6.733,6.733,0,0,1,62.76-5.6Zm8.36.02a2.8,2.8,0,0,0-.71-2.02,2.307,2.307,0,0,0-1.73-.74,2.322,2.322,0,0,0-1.73.73,2.761,2.761,0,0,0-.71,2.01,2.832,2.832,0,0,0,.71,2.03,2.292,2.292,0,0,0,1.73.75,2.307,2.307,0,0,0,1.73-.74A2.8,2.8,0,0,0,71.12-5.58ZM80.44-9.3a4.512,4.512,0,0,1,1.5-1.45,3.868,3.868,0,0,1,2-.53v3.62H83a2.881,2.881,0,0,0-1.92.55,2.443,2.443,0,0,0-.64,1.93V0H77.02V-11.16h3.42ZM84.9-5.6a6.67,6.67,0,0,1,.65-3.02,4.848,4.848,0,0,1,1.77-2,4.621,4.621,0,0,1,2.5-.7,4.391,4.391,0,0,1,2.01.46,3.663,3.663,0,0,1,1.43,1.24V-14.8h3.42V0H93.26V-1.6A3.484,3.484,0,0,1,91.89-.32a4.3,4.3,0,0,1-2.07.48,4.572,4.572,0,0,1-2.5-.71,4.906,4.906,0,0,1-1.77-2.02A6.733,6.733,0,0,1,84.9-5.6Zm8.36.02a2.8,2.8,0,0,0-.71-2.02,2.307,2.307,0,0,0-1.73-.74,2.322,2.322,0,0,0-1.73.73,2.761,2.761,0,0,0-.71,2.01,2.832,2.832,0,0,0,.71,2.03,2.292,2.292,0,0,0,1.73.75,2.307,2.307,0,0,0,1.73-.74A2.8,2.8,0,0,0,93.26-5.58Z" transform="translate(-0.62 14.8)"/></svg>