<svg xmlns="http://www.w3.org/2000/svg" xmlns:xlink="http://www.w3.org/1999/xlink" width="39.643" height="42.936" viewBox="0 0 39.643 42.936"><defs><style>.a{clip-path:url(#a);}.b{clip-path:url(#b);}</style><clipPath id="a"><path d="M3470.5,1743.671a28.5,28.5,0,0,0-7.861,3.144,29.11,29.11,0,0,0-9.771,9.4,40.987,40.987,0,0,0-9.8.642c-.192.033-.372.059-.578.081.158-.5.338-1,.535-1.49A20.948,20.948,0,0,1,3470.5,1743.671Zm2.131,1.037a21.423,21.423,0,0,1,7.613,7.213l.351.57-8.446,4.967c-.042-.069-.084-.134-.127-.2a11.185,11.185,0,0,0-15.654-3.38A27,27,0,0,1,3472.634,1744.708Zm-16.126,12.89a8.578,8.578,0,0,1-2.94,5.947,13.51,13.51,0,0,0-8.759,0,6.324,6.324,0,0,0,1.126-4.018A13.152,13.152,0,0,0,3456.507,1757.6Zm-1.293-.026a11.725,11.725,0,0,1-1.67.794c-2.534.928-4.483,1.148-8.3.375a6.248,6.248,0,0,1-1.393,5.02,11.83,11.83,0,0,0-2.9-5.956,20.113,20.113,0,0,0,2.206-.233C3452.039,1756.2,3454.547,1757.118,3455.214,1757.572Zm22.838,13.257-.184,0a11.138,11.138,0,0,0-1.472.256,9.358,9.358,0,0,0-3.232,1.471c-.173.129-.347.261-.514.4l6.353,1.969h0a2.738,2.738,0,0,0,.877-2.091,2.627,2.627,0,0,0-1.077-1.692l-.241-.149a1.154,1.154,0,0,0-.7-.164Zm-.4-.657a1.868,1.868,0,0,1,1.226.235l.309.195a3.27,3.27,0,0,1,1.388,2.183,3.3,3.3,0,0,1-1.225,2.75.337.337,0,0,1-.246.1.405.405,0,0,1-.106,0l-6.805-2.1-.062-.027a1.161,1.161,0,0,0-.231.712,3.162,3.162,0,0,0,.184.791,3.026,3.026,0,0,1,.074,2.117,5.469,5.469,0,0,1-.52,1.11,1.432,1.432,0,0,0-.084,1.778c.137.266.285.5.41.705a3.433,3.433,0,0,1,.72,2.317.352.352,0,0,1-.352.317h-.026a.336.336,0,0,1-.231-.114,3.719,3.719,0,0,0-.71-2.376c-.121-.22-.267-.471-.41-.751a1.666,1.666,0,0,1,.084-1.932,5.933,5.933,0,0,0,.515-1.192,3.376,3.376,0,0,0-.074-2.218,3.3,3.3,0,0,1-.179-.864,1.172,1.172,0,0,1,.084-.5,4.183,4.183,0,0,1,1.361-1.4,9.993,9.993,0,0,1,3.021-1.461c.363-.092.705-.173,1.026-.24l.356-.063.254-.046Zm-35.882-10.142c1.145,1.336,1.66,4.7,1.713,4.677a11.9,11.9,0,0,1,7.633-1.161,10.921,10.921,0,0,1,4.768,2.316,11.176,11.176,0,0,0,3.156,1.858,13.348,13.348,0,0,0,5.731.122c5.34-.847,8.861-.591,11.824.775-.386.069-.794.162-1.236.269-2.6-.944-5.921-1.166-10.406-.355a17.484,17.484,0,0,1-4.749.155,8.514,8.514,0,0,1-3.452-1.311c-.439-.309-.922-.676-1.425-1.037a14.094,14.094,0,0,0-3.831-1.98,11.372,11.372,0,0,0-3.939-.226,11.033,11.033,0,0,0-3.256,1.027,4.521,4.521,0,0,0-1.824,1.807c.078.451.15.817.213,1.1.026-.038.667-2,2.166-2.1s2.02,1.6,2.231,2.543a12.282,12.282,0,0,1,.06,3.684c-.06.675-.117,1.371-.117,2.052a12.1,12.1,0,0,0,.386,3.164c.43.485.886.944,1.363,1.387a8.346,8.346,0,0,1-1.044-4.558c0-.647.058-1.328.111-1.992a12.834,12.834,0,0,0-.075-3.905,3.946,3.946,0,0,0-1.7-2.776,8.114,8.114,0,0,1,4.569,1.087c1.389.913,1.962,2.191,3.414,3.537a12.26,12.26,0,0,0,5.786,2.933,9.415,9.415,0,0,0,4.317-.6c1.472-.474,4.136-1.636,5.667-2.107a16.661,16.661,0,0,1,3.39-.637c-1.4.637-3.3,2.18-3.256,3.346.048,1.2.636,1.963.319,3.124s-.968,1.729-.968,2.578c-5.269,1.409-9.622,1.106-12.909-.913a11.486,11.486,0,0,1-4.858-6.118l-.153-.492h-.75a12.383,12.383,0,0,0,5.391,7.221,13.614,13.614,0,0,0,7.273,1.846,24,24,0,0,0,6.133-.88c.105.588.239.6.674,1.442a3.549,3.549,0,0,1,.6,2.409,20.67,20.67,0,0,1-11.584,1.387A21.435,21.435,0,0,1,3441.775,1760.029Z" transform="translate(-3440.954 -1742.076)"/></clipPath><clipPath id="b"><rect width="333.47" height="334.81"/></clipPath></defs><g class="a"><g transform="translate(-14.312 -145.943)"><g class="b" transform="translate(0 0)"><rect width="43.039" height="46.237" transform="translate(12.66 144.292)"/></g></g></g></svg>