<svg xmlns="http://www.w3.org/2000/svg" xmlns:xlink="http://www.w3.org/1999/xlink" width="38.005" height="35.32" viewBox="0 0 38.005 35.32"><defs><style>.a{fill:#0145ff;}.b{fill:url(#a);}.c{fill:#0c73fa;}.d{fill:url(#b);}.e{fill:#67ccec;}.f{fill:url(#c);}.g{fill:#51f0ca;}</style><linearGradient id="a" x1="0.5" x2="0.5" y2="1" gradientUnits="objectBoundingBox"><stop offset="0" stop-color="#1e22eb" stop-opacity="0"/><stop offset="1" stop-color="#0f1176"/></linearGradient><linearGradient id="b" x1="0.803" y1="-0.147" x2="0.836" y2="0.937" gradientUnits="objectBoundingBox"><stop offset="0" stop-color="#0c73fa" stop-opacity="0"/><stop offset="1" stop-color="#063a7d"/></linearGradient><linearGradient id="c" x1="0.522" y1="0.062" x2="0.5" y2="1" gradientUnits="objectBoundingBox"><stop offset="0" stop-color="#67ccec" stop-opacity="0"/><stop offset="1" stop-color="#346676"/></linearGradient></defs><g transform="translate(1625.543 187.841)"><path class="a" d="M8.249,0H26.884c4.556,0,8.249,3.984,8.249,8.9v9H0v-9C0,3.984,3.693,0,8.249,0Z" transform="translate(-1624.184 -187.841)"/><path class="b" d="M8.249,0H26.884c4.556,0,8.249,3.984,8.249,8.9v9H0v-9C0,3.984,3.693,0,8.249,0Z" transform="translate(-1624.184 -187.841)"/><path class="c" d="M8.292,0,26.063.15C30.68.189,34.453,4.241,34.491,9.2l.072,9.311L.075,18.227,0,8.916C-.035,3.955,3.676-.035,8.292,0Z" transform="matrix(0.994, 0.109, -0.109, 0.994, -1621.895, -184.642)"/><path class="d" d="M8.292,0,26.063.15C30.68.189,34.453,4.241,34.491,9.2l.072,9.311L.075,18.227,0,8.916C-.035,3.955,3.676-.035,8.292,0Z" transform="matrix(0.994, 0.109, -0.109, 0.994, -1621.895, -184.641)"/><path class="e" d="M7.776,0l18.2.117a7.736,7.736,0,0,1,7.875,7.431L33.9,14.5.05,14.284,0,7.332A7.492,7.492,0,0,1,7.776,0Z" transform="translate(-1625.545 -176.402) rotate(-6.403)"/><path class="f" d="M7.776,0l18.2.117a7.736,7.736,0,0,1,7.875,7.431L33.9,14.5.05,14.284,0,7.332A7.492,7.492,0,0,1,7.776,0Z" transform="translate(-1625.545 -176.403) rotate(-6.403)"/><path class="g" d="M8.1,0H27.041c4.472,0,8.1,3.91,8.1,8.734v4.205c0,4.824-3.625,8.734-8.1,8.734H8.1c-4.472,0-8.1-3.91-8.1-8.734V8.734C0,3.91,3.625,0,8.1,0Z" transform="translate(-1624.189 -174.193)"/></g></svg>