<svg xmlns="http://www.w3.org/2000/svg" width="42" height="42" viewBox="0 0 42 42">
  <g id="logo_wallet" transform="translate(-499 -404)">
    <g id="组_127580" data-name="组 127580" transform="translate(-15.862 2.58)">
      <path id="联合_164" data-name="联合 164" d="M-6555.337-5419.583a4.789,4.789,0,0,1-3.358-1.462,4.807,4.807,0,0,1-1.441-3.341v-12.95c0-2.3,2.153-4.176,4.8-4.176h22.936a4.931,4.931,0,0,1,3.05,1.342,3.944,3.944,0,0,1,1.216,2.834v2.088H-6534a4.873,4.873,0,0,0-4.8,4.7,4.875,4.875,0,0,0,4.8,4.7h5.867v1.568a4.873,4.873,0,0,1-4.8,4.7Zm21.285-7.329a3.963,3.963,0,0,1-3.765-3.766,3.965,3.965,0,0,1,3.765-3.766h5.916v7.531Zm-1.615-3.766a1.656,1.656,0,0,0,1.615,1.616,1.656,1.656,0,0,0,1.613-1.616,1.58,1.58,0,0,0-1.613-1.612A1.654,1.654,0,0,0-6535.667-5430.678Zm1.075.027a.541.541,0,0,1,.54-.537.537.537,0,0,1,.534.537.535.535,0,0,1-.534.537A.539.539,0,0,1-6534.592-5430.65Zm-21.58-12.368,3.875-1.715a7.072,7.072,0,0,0,3.3.814,7.082,7.082,0,0,0,6.86-5.31l3-1.324a5.543,5.543,0,0,1,2.328-.552,4,4,0,0,1,2.249.661,4.8,4.8,0,0,1,2.02,4.087v3.766h-10l5.429-2.149c.329-.226.421-.441.318-.753-.078-.243-.219-.363-.417-.363a.756.756,0,0,0-.223.038l-7.874,3.228h-10a5.717,5.717,0,0,0-2.339.428A3.006,3.006,0,0,1-6556.172-5443.019Zm.592-7.982a6.589,6.589,0,0,1,6.583-6.58,6.586,6.586,0,0,1,6.579,6.58,6.588,6.588,0,0,1-6.579,6.582A6.592,6.592,0,0,1-6555.581-5451Zm6.583,4.692,2.883-4.135L-6549-5448.7l-2.883-1.742Zm0-9.383-2.883,4.827,2.883,1.729,2.883-1.729Z" transform="translate(7080 5861.001)" fill="#3389ff"/>
    </g>
    <rect id="矩形_56833" data-name="矩形 56833" width="42" height="42" transform="translate(499 404)" fill="rgba(255,255,255,0)"/>
  </g>
</svg>
