<svg xmlns="http://www.w3.org/2000/svg" xmlns:xlink="http://www.w3.org/1999/xlink" width="18" height="18" viewBox="0 0 18 18"><defs><style>.a{fill:#fff;stroke:#707070;}.b{clip-path:url(#a);}.c{fill:#202327;fill-rule:evenodd;}</style><clipPath id="a"><circle class="a" cx="9" cy="9" r="9" transform="translate(141 519)"/></clipPath></defs><g class="b" transform="translate(-141 -519)"><path class="c" d="M9,18a9,9,0,1,1,9-9A9.014,9.014,0,0,1,9,18ZM4.68,12.08a3.5,3.5,0,0,0,.96.12,3,3,0,0,0,1.88-.56,2.7,2.7,0,0,0,.96-1.68c.04-.24.12-.48.16-.68l.12-.72a1.91,1.91,0,0,0-.04-.96,1.348,1.348,0,0,0-.44-.68,2.177,2.177,0,0,0-.72-.44,3.407,3.407,0,0,0-.92-.16,3,3,0,0,0-1.88.56A2.7,2.7,0,0,0,3.8,8.56c-.04.24-.12.48-.16.72s-.08.48-.12.68a2.512,2.512,0,0,0,.04.96A1.348,1.348,0,0,0,4,11.6,1.036,1.036,0,0,0,4.68,12.08ZM6.52,10.8a1.317,1.317,0,0,1-.76.24.787.787,0,0,1-.64-.24,1.074,1.074,0,0,1-.08-.84c.04-.24.08-.48.12-.68s.12-.44.16-.64A1.467,1.467,0,0,1,5.8,7.8a1.317,1.317,0,0,1,.76-.24.787.787,0,0,1,.64.24,1.074,1.074,0,0,1,.08.84c-.04.24-.08.44-.12.64A5.454,5.454,0,0,1,7,9.96,1.663,1.663,0,0,1,6.52,10.8Zm2.44,1.28a.147.147,0,0,0,.12.04H10.2a.24.24,0,0,0,.16-.04.208.208,0,0,0,.08-.16l.36-1.76h1.08a3.079,3.079,0,0,0,1.68-.44,2.347,2.347,0,0,0,.84-1.36,1.347,1.347,0,0,0,0-.8,1.506,1.506,0,0,0-.36-.6,1.573,1.573,0,0,0-.68-.36,3.119,3.119,0,0,0-.88-.12H10.32a.24.24,0,0,0-.16.04.208.208,0,0,0-.08.16L8.96,11.96A.075.075,0,0,0,8.96,12.08Zm3-3.04h-.92l.32-1.44h.96a1.235,1.235,0,0,1,.44.08c.08.08.16.16.16.24v.36a.778.778,0,0,1-.36.56A.9.9,0,0,1,11.96,9.04Z" transform="translate(141 519)"/></g></svg>